<svg xmlns="http://www.w3.org/2000/svg" viewBox="0 0 512 512" role="img" aria-label="Peace Lab — Cognitive Topology mark">
  <title>Peace Lab — Cognitive Topology</title>
  <desc>Pentagonal cognitive topology: golden-ratio nested circles, outward petal Bezier blooms, inscribed pentagram skeleton, hexagonal core, scattered field stars, and a single magenta singularity. Academic dark container, grid, registration marks, mono notations.</desc>
  <defs>
    <linearGradient id="mBg" x1="0%" y1="0%" x2="100%" y2="100%">
      <stop offset="0%" stop-color="#0a0f1c"/>
      <stop offset="100%" stop-color="#0d1426"/>
    </linearGradient>
    <pattern id="mGrid" x="0" y="0" width="16" height="16" patternUnits="userSpaceOnUse">
      <path d="M 16 0 L 0 0 0 16" fill="none" stroke="#1a2238" stroke-width="0.6"/>
    </pattern>
    <radialGradient id="mCoreGlow" cx="50%" cy="50%" r="50%">
      <stop offset="0%"  stop-color="#a5f3fc" stop-opacity="0.45"/>
      <stop offset="55%" stop-color="#22d3ee" stop-opacity="0.14"/>
      <stop offset="100%" stop-color="#22d3ee" stop-opacity="0"/>
    </radialGradient>
    <radialGradient id="mNodeGlow" cx="50%" cy="50%" r="50%">
      <stop offset="0%"  stop-color="#a5f3fc" stop-opacity="0.55"/>
      <stop offset="60%" stop-color="#22d3ee" stop-opacity="0.20"/>
      <stop offset="100%" stop-color="#22d3ee" stop-opacity="0"/>
    </radialGradient>
    <radialGradient id="mPinkGlow" cx="50%" cy="50%" r="50%">
      <stop offset="0%"  stop-color="#f9a8d4" stop-opacity="0.85"/>
      <stop offset="55%" stop-color="#f472b6" stop-opacity="0.35"/>
      <stop offset="100%" stop-color="#f472b6" stop-opacity="0"/>
    </radialGradient>
    <linearGradient id="mPetal" x1="0%" y1="0%" x2="100%" y2="100%">
      <stop offset="0%"  stop-color="#22d3ee" stop-opacity="0.92"/>
      <stop offset="100%" stop-color="#5eead4" stop-opacity="0.85"/>
    </linearGradient>
    <linearGradient id="mStar" x1="0%" y1="0%" x2="0%" y2="100%">
      <stop offset="0%"  stop-color="#5eead4" stop-opacity="0.42"/>
      <stop offset="100%" stop-color="#22d3ee" stop-opacity="0.22"/>
    </linearGradient>
    <clipPath id="mCard">
      <rect width="512" height="512" rx="72"/>
    </clipPath>
  </defs>

  <!-- 容器 -->
  <rect width="512" height="512" rx="72" fill="url(#mBg)"/>
  <rect width="512" height="512" rx="72" fill="url(#mGrid)" opacity="0.55"/>
  <rect x="0.5" y="0.5" width="511" height="511" rx="71.5" fill="none" stroke="#22d3ee" stroke-opacity="0.22" stroke-width="1"/>

  <g clip-path="url(#mCard)">

    <!-- 四角校准标 -->
    <g stroke="#22d3ee" stroke-opacity="0.45" stroke-width="1" fill="none">
      <path d="M 28 44 L 28 28 L 44 28"/>
      <path d="M 484 28 L 468 28 L 468 44"/>
      <path d="M 28 468 L 28 484 L 44 484"/>
      <path d="M 484 484 L 484 468 L 468 468"/>
    </g>

    <!-- 顶部 mono 注释 -->
    <path d="M1201 1213H462V874H1109V618H462V0H156V1472H1201Z" transform="translate(60.00,46.00) scale(0.0054,-0.0054)" fill="#22d3ee"/>
<path d="M132 1474H438V0H132Z" transform="translate(68.72,46.00) scale(0.0054,-0.0054)" fill="#22d3ee"/>
<path d="M1060 36Q938 -39 760 -39Q467 -39 280 164Q85 368 85 722Q85 1080 282 1296Q479 1512 803 1512Q1084 1512 1254.5 1369.5Q1425 1227 1450 1014H1147Q1112 1165 976 1225Q900 1258 807 1258Q629 1258 514.5 1123.5Q400 989 400 719Q400 447 524.0 334.0Q648 221 806 221Q961 221 1060.0 310.5Q1159 400 1182 545H841V791H1455V0H1251L1220 184Q1131 79 1060 36Z" transform="translate(73.78,46.00) scale(0.0054,-0.0054)" fill="#22d3ee"/>
<path d="M128 298H431V0H128Z" transform="translate(84.33,46.00) scale(0.0054,-0.0054)" fill="#22d3ee"/>
<path d="M564 -36Q287 -36 175.5 158.0Q64 352 64 711Q64 1070 175.5 1265.0Q287 1460 564 1460Q841 1460 953 1265Q1064 1070 1064 711Q1064 352 952.5 158.0Q841 -36 564 -36ZM731 329Q770 461 770 711Q770 973 730.5 1099.0Q691 1225 564 1225Q437 1225 396.0 1099.0Q355 973 355 711Q355 461 396.0 328.5Q437 196 564 196Q691 196 731 329Z" transform="translate(89.39,46.00) scale(0.0054,-0.0054)" fill="#22d3ee"/>
<path d="M775 0H483V1000H142V1194Q277 1200 331 1212Q417 1231 471 1288Q508 1327 527 1392Q538 1431 538 1450H775Z" transform="translate(97.51,46.00) scale(0.0054,-0.0054)" fill="#22d3ee"/>
<path d="M241 682H1806V464H241Z" transform="translate(110.68,46.00) scale(0.0054,-0.0054)" fill="#22d3ee"/>
<path d="M1196 110Q1031 -41 774 -41Q456 -41 274 163Q92 368 92 725Q92 1111 299 1320Q479 1502 757 1502Q1129 1502 1301 1258Q1396 1121 1403 983H1095Q1065 1089 1018 1143Q934 1239 769 1239Q601 1239 504.0 1103.5Q407 968 407 720Q407 472 509.5 348.5Q612 225 770 225Q932 225 1017 331Q1064 388 1095 502H1400Q1360 261 1196 110Z" transform="translate(128.74,46.00) scale(0.0054,-0.0054)" fill="#22d3ee"/>
<path d="M808 -41Q492 -41 325 131Q101 342 101 739Q101 1144 325 1347Q492 1519 808 1519Q1124 1519 1291 1347Q1514 1144 1514 739Q1514 342 1291 131Q1124 -41 808 -41ZM1099 355Q1206 490 1206 739Q1206 987 1098.5 1122.5Q991 1258 808 1258Q625 1258 516.0 1123.0Q407 988 407 739Q407 490 516.0 355.0Q625 220 808 220Q991 220 1099 355Z" transform="translate(138.68,46.00) scale(0.0054,-0.0054)" fill="#22d3ee"/>
<path d="M1060 36Q938 -39 760 -39Q467 -39 280 164Q85 368 85 722Q85 1080 282 1296Q479 1512 803 1512Q1084 1512 1254.5 1369.5Q1425 1227 1450 1014H1147Q1112 1165 976 1225Q900 1258 807 1258Q629 1258 514.5 1123.5Q400 989 400 719Q400 447 524.0 334.0Q648 221 806 221Q961 221 1060.0 310.5Q1159 400 1182 545H841V791H1455V0H1251L1220 184Q1131 79 1060 36Z" transform="translate(149.24,46.00) scale(0.0054,-0.0054)" fill="#22d3ee"/>
<path d="M1348 0H1040L438 1047V0H151V1474H474L1061 445V1474H1348Z" transform="translate(159.79,46.00) scale(0.0054,-0.0054)" fill="#22d3ee"/>
<path d="M132 1474H438V0H132Z" transform="translate(169.74,46.00) scale(0.0054,-0.0054)" fill="#22d3ee"/>
<path d="M1227 1474V1213H786V0H476V1213H33V1474Z" transform="translate(174.79,46.00) scale(0.0054,-0.0054)" fill="#22d3ee"/>
<path d="M132 1474H438V0H132Z" transform="translate(183.51,46.00) scale(0.0054,-0.0054)" fill="#22d3ee"/>
<path d="M47 1474H376L696 355L1019 1474H1339L836 0H545Z" transform="translate(188.57,46.00) scale(0.0054,-0.0054)" fill="#22d3ee"/>
<path d="M1182 644H466V265H1282V0H165V1474H1246V1213H466V900H1182Z" transform="translate(197.90,46.00) scale(0.0054,-0.0054)" fill="#22d3ee"/>
<path d="M1227 1474V1213H786V0H476V1213H33V1474Z" transform="translate(212.30,46.00) scale(0.0054,-0.0054)" fill="#22d3ee"/>
<path d="M808 -41Q492 -41 325 131Q101 342 101 739Q101 1144 325 1347Q492 1519 808 1519Q1124 1519 1291 1347Q1514 1144 1514 739Q1514 342 1291 131Q1124 -41 808 -41ZM1099 355Q1206 490 1206 739Q1206 987 1098.5 1122.5Q991 1258 808 1258Q625 1258 516.0 1123.0Q407 988 407 739Q407 490 516.0 355.0Q625 220 808 220Q991 220 1099 355Z" transform="translate(221.02,46.00) scale(0.0054,-0.0054)" fill="#22d3ee"/>
<path d="M782 530H469V0H163V1474H805Q1027 1474 1159.0 1360.0Q1291 1246 1291 1007Q1291 746 1159.0 638.0Q1027 530 782 530ZM926 837Q986 890 986 1005Q986 1120 925.5 1169.0Q865 1218 756 1218H469V784H756Q865 784 926 837Z" transform="translate(231.57,46.00) scale(0.0054,-0.0054)" fill="#22d3ee"/>
<path d="M808 -41Q492 -41 325 131Q101 342 101 739Q101 1144 325 1347Q492 1519 808 1519Q1124 1519 1291 1347Q1514 1144 1514 739Q1514 342 1291 131Q1124 -41 808 -41ZM1099 355Q1206 490 1206 739Q1206 987 1098.5 1122.5Q991 1258 808 1258Q625 1258 516.0 1123.0Q407 988 407 739Q407 490 516.0 355.0Q625 220 808 220Q991 220 1099 355Z" transform="translate(240.91,46.00) scale(0.0054,-0.0054)" fill="#22d3ee"/>
<path d="M156 1474H464V265H1194V0H156Z" transform="translate(251.47,46.00) scale(0.0054,-0.0054)" fill="#22d3ee"/>
<path d="M808 -41Q492 -41 325 131Q101 342 101 739Q101 1144 325 1347Q492 1519 808 1519Q1124 1519 1291 1347Q1514 1144 1514 739Q1514 342 1291 131Q1124 -41 808 -41ZM1099 355Q1206 490 1206 739Q1206 987 1098.5 1122.5Q991 1258 808 1258Q625 1258 516.0 1123.0Q407 988 407 739Q407 490 516.0 355.0Q625 220 808 220Q991 220 1099 355Z" transform="translate(260.18,46.00) scale(0.0054,-0.0054)" fill="#22d3ee"/>
<path d="M1060 36Q938 -39 760 -39Q467 -39 280 164Q85 368 85 722Q85 1080 282 1296Q479 1512 803 1512Q1084 1512 1254.5 1369.5Q1425 1227 1450 1014H1147Q1112 1165 976 1225Q900 1258 807 1258Q629 1258 514.5 1123.5Q400 989 400 719Q400 447 524.0 334.0Q648 221 806 221Q961 221 1060.0 310.5Q1159 400 1182 545H841V791H1455V0H1251L1220 184Q1131 79 1060 36Z" transform="translate(270.74,46.00) scale(0.0054,-0.0054)" fill="#22d3ee"/>
<path d="M1346 1474 853 554V0H545V554L35 1474H398L704 832L997 1474Z" transform="translate(281.30,46.00) scale(0.0054,-0.0054)" fill="#22d3ee"/>
    <path d="M26 1090H346L573 286L805 1090H1111L718 0H417Z" transform="translate(430.98,46.00) scale(0.0054,-0.0054)" fill="#22d3ee"/>
<path d="M128 298H431V0H128Z" transform="translate(439.10,46.00) scale(0.0054,-0.0054)" fill="#22d3ee"/>
<path d="M372 327Q194 327 109.5 442.0Q25 557 25 737Q25 911 120.0 1025.5Q215 1140 372 1140Q466 1140 549.0 1091.0Q632 1042 713 917Q797 1037 875.0 1089.0Q953 1141 1060 1141Q1233 1141 1325.0 1026.0Q1417 911 1417 737Q1417 557 1327.5 443.0Q1238 329 1060 329Q950 329 858 404Q792 459 732 554Q663 443 571.0 385.0Q479 327 372 327ZM372 536Q463 536 509.0 586.0Q555 636 602 737Q546 846 497.5 888.0Q449 930 372 930Q311 930 268.0 876.0Q225 822 225 737Q225 645 265.5 590.5Q306 536 372 536ZM942 586Q986 536 1060 536Q1137 536 1179.0 590.5Q1221 645 1221 737Q1221 822 1178.5 874.0Q1136 926 1060 926Q985 926 945.5 886.0Q906 846 850 730Q897 636 942 586Z" transform="translate(444.16,46.00) scale(0.0054,-0.0054)" fill="#22d3ee"/>

    <!-- 底部 mono 注释 -->
    <path d="M508 2Q428 23 332 80Q236 139 164 252Q90 362 88 539Q90 721 164 833Q236 944 332 997Q428 1051 508 1071Q588 1085 608 1085V1323H870V1085Q895 1085 975 1071Q1055 1051 1151 997Q1247 944 1319 833Q1388 721 1390 539Q1388 362 1319 252Q1247 139 1151 80Q1055 23 975 2Q895 -20 870 -20V-401H608V-20Q588 -20 508 2ZM870 205Q1010 223 1065 319Q1116 412 1116 547Q1116 674 1059 766Q999 860 870 872ZM416 319Q469 223 608 205V872Q483 860 424 766Q362 674 362 547Q360 412 416 319Z" transform="translate(60.00,478.00) scale(0.0054,-0.0054)" fill="#22d3ee"/>
<path d="M1156 907V644H73V907ZM73 177V440H1156V177Z" transform="translate(75.00,478.00) scale(0.0054,-0.0054)" fill="#22d3ee"/>
<path d="M564 -36Q287 -36 175.5 158.0Q64 352 64 711Q64 1070 175.5 1265.0Q287 1460 564 1460Q841 1460 953 1265Q1064 1070 1064 711Q1064 352 952.5 158.0Q841 -36 564 -36ZM731 329Q770 461 770 711Q770 973 730.5 1099.0Q691 1225 564 1225Q437 1225 396.0 1099.0Q355 973 355 711Q355 461 396.0 328.5Q437 196 564 196Q691 196 731 329Z" transform="translate(88.48,478.00) scale(0.0054,-0.0054)" fill="#22d3ee"/>
<path d="M128 298H431V0H128Z" transform="translate(96.60,478.00) scale(0.0054,-0.0054)" fill="#22d3ee"/>
<path d="M626 941Q819 941 942.5 810.0Q1066 679 1066 475Q1066 272 945.0 117.0Q824 -38 569 -38Q295 -38 165 191Q64 370 64 653Q64 819 78 923Q103 1108 175 1231Q237 1336 337.5 1400.0Q438 1464 578 1464Q780 1464 900.0 1360.5Q1020 1257 1035 1085H751Q751 1120 724 1162Q678 1230 585 1230Q446 1230 387 1074Q355 988 343 820Q396 883 466.0 912.0Q536 941 626 941ZM434 669Q350 604 350 459Q350 342 413.0 268.0Q476 194 573 194Q668 194 722.5 265.5Q777 337 777 451Q777 578 715.0 645.5Q653 713 563 713Q490 713 434 669Z" transform="translate(101.65,478.00) scale(0.0054,-0.0054)" fill="#22d3ee"/>
<path d="M775 0H483V1000H142V1194Q277 1200 331 1212Q417 1231 471 1288Q508 1327 527 1392Q538 1431 538 1450H775Z" transform="translate(109.77,478.00) scale(0.0054,-0.0054)" fill="#22d3ee"/>
<path d="M179 91Q54 219 54 402Q54 524 109.5 623.0Q165 722 272 772Q167 842 135.5 923.5Q104 1005 104 1076Q104 1234 223.0 1345.5Q342 1457 559 1457Q776 1457 895.0 1345.5Q1014 1234 1014 1076Q1014 1005 982.5 923.5Q951 842 846 782Q953 722 1007.0 623.0Q1061 524 1061 402Q1061 219 925.5 90.5Q790 -38 547 -38Q304 -38 179 91ZM350 421Q350 314 405.5 255.0Q461 196 559 196Q657 196 712.5 255.0Q768 314 768 421Q768 532 711.5 589.5Q655 647 559 647Q463 647 406.5 589.5Q350 532 350 421ZM425 915Q473 865 559 865Q646 865 693.5 915.0Q741 965 741 1044Q741 1130 693.5 1178.5Q646 1227 559 1227Q473 1227 424.5 1178.5Q376 1130 376 1044Q376 965 425 915Z" transform="translate(117.89,478.00) scale(0.0054,-0.0054)" fill="#22d3ee"/>
    <path d="M646 879Q501 879 447 756Q419 691 419 590V0H135V1088H410V929Q465 1013 514 1050Q602 1116 737 1116Q906 1116 1013.5 1027.5Q1121 939 1121 734V0H829V663Q829 749 806 795Q764 879 646 879Z" transform="translate(239.31,478.00) scale(0.0054,-0.0054)" fill="#22d3ee"/>
<path d="M1156 907V644H73V907ZM73 177V440H1156V177Z" transform="translate(253.09,478.00) scale(0.0054,-0.0054)" fill="#22d3ee"/>
<path d="M546 720Q494 720 456 707Q389 683 355 618L99 630L201 1431H1000V1189H407L355 872Q421 915 458 929Q520 952 609 952Q789 952 923.0 831.0Q1057 710 1057 479Q1057 278 928.0 120.0Q799 -38 542 -38Q335 -38 202.0 73.0Q69 184 54 388H338Q355 295 403.0 244.5Q451 194 543 194Q649 194 704.5 268.5Q760 343 760 456Q760 567 708.0 643.5Q656 720 546 720Z" transform="translate(266.57,478.00) scale(0.0054,-0.0054)" fill="#22d3ee"/>
    <path d="M782 530H469V0H163V1474H805Q1027 1474 1159.0 1360.0Q1291 1246 1291 1007Q1291 746 1159.0 638.0Q1027 530 782 530ZM926 837Q986 890 986 1005Q986 1120 925.5 1169.0Q865 1218 756 1218H469V784H756Q865 784 926 837Z" transform="translate(362.33,478.00) scale(0.0054,-0.0054)" fill="#22d3ee"/>
<path d="M1182 644H466V265H1282V0H165V1474H1246V1213H466V900H1182Z" transform="translate(371.66,478.00) scale(0.0054,-0.0054)" fill="#22d3ee"/>
<path d="M1019 303H476L374 0H52L578 1474H926L1448 0H1114ZM933 557 749 1137 559 557Z" transform="translate(381.00,478.00) scale(0.0054,-0.0054)" fill="#22d3ee"/>
<path d="M1196 110Q1031 -41 774 -41Q456 -41 274 163Q92 368 92 725Q92 1111 299 1320Q479 1502 757 1502Q1129 1502 1301 1258Q1396 1121 1403 983H1095Q1065 1089 1018 1143Q934 1239 769 1239Q601 1239 504.0 1103.5Q407 968 407 720Q407 472 509.5 348.5Q612 225 770 225Q932 225 1017 331Q1064 388 1095 502H1400Q1360 261 1196 110Z" transform="translate(390.94,478.00) scale(0.0054,-0.0054)" fill="#22d3ee"/>
<path d="M1182 644H466V265H1282V0H165V1474H1246V1213H466V900H1182Z" transform="translate(400.89,478.00) scale(0.0054,-0.0054)" fill="#22d3ee"/>
<path d="M-112 0 459 1519H696L123 0Z" transform="translate(415.28,478.00) scale(0.0054,-0.0054)" fill="#22d3ee"/>
<path d="M156 1474H464V265H1194V0H156Z" transform="translate(425.39,478.00) scale(0.0054,-0.0054)" fill="#22d3ee"/>
<path d="M1019 303H476L374 0H52L578 1474H926L1448 0H1114ZM933 557 749 1137 559 557Z" transform="translate(434.11,478.00) scale(0.0054,-0.0054)" fill="#22d3ee"/>
<path d="M829 0H161V1474H877Q1148 1470 1261 1317Q1329 1223 1329 1092Q1329 957 1261 875Q1223 829 1149 791Q1262 750 1319.5 661.0Q1377 572 1377 445Q1377 314 1311 210Q1269 141 1206 94Q1135 40 1038.5 20.0Q942 0 829 0ZM822 649H455V256H817Q914 256 968 282Q1066 330 1066 466Q1066 581 971 624Q918 648 822 649ZM975 930Q1035 966 1035 1059Q1035 1162 955 1195Q886 1218 779 1218H455V893H817Q914 893 975 930Z" transform="translate(444.06,478.00) scale(0.0054,-0.0054)" fill="#22d3ee"/>

    <!-- 中心辉光底盘 -->
    <circle cx="256" cy="256" r="190" fill="url(#mCoreGlow)"/>

    <!-- 背景星点（field stars，散布于内外圈之间） -->
    <g fill="#a5f3fc">
      <circle cx="138"  cy="118" r="1.2" fill-opacity="0.65"/>
      <circle cx="382"  cy="78"  r="1.5" fill-opacity="0.80"/>
      <circle cx="448"  cy="164" r="1.0" fill-opacity="0.55"/>
      <circle cx="430"  cy="346" r="1.3" fill-opacity="0.70"/>
      <circle cx="222"  cy="446" r="1.0" fill-opacity="0.55"/>
      <circle cx="86"   cy="392" r="1.4" fill-opacity="0.75"/>
      <circle cx="56"   cy="248" r="1.0" fill-opacity="0.55"/>
      <circle cx="74"   cy="156" r="1.2" fill-opacity="0.65"/>
      <circle cx="356"  cy="448" r="0.9" fill-opacity="0.50"/>
    </g>

    <!-- 同心律动圆环（黄金比例嵌套） -->
    <circle cx="256" cy="256" r="200"  fill="none" stroke="#22d3ee" stroke-opacity="0.10" stroke-width="1"/>
    <circle cx="256" cy="256" r="160"  fill="none" stroke="#22d3ee" stroke-opacity="0.55" stroke-width="2"/>
    <circle cx="256" cy="256" r="128"  fill="none" stroke="#5eead4" stroke-opacity="0.22" stroke-width="1" stroke-dasharray="1 5"/>
    <circle cx="256" cy="256" r="98.8" fill="none" stroke="#22d3ee" stroke-opacity="0.18" stroke-width="1"/>
    <circle cx="256" cy="256" r="61"   fill="none" stroke="#5eead4" stroke-opacity="0.28" stroke-width="1" stroke-dasharray="2 4"/>

    <!-- 内嵌五角星骨架（连接跨2节点 0→2→4→1→3→0，极淡 cyan） -->
    <path d="M 256 96 L 350.0 385.4 L 103.8 206.6 L 408.2 206.6 L 162.0 385.4 Z"
          fill="none" stroke="url(#mStar)" stroke-width="1" stroke-linejoin="round" stroke-opacity="0.85"/>

    <!-- 五瓣外凸 Bezier 花瓣（控制点 r=220 沿节点中点径向外延伸，形成花瓣外凸形态） -->
    <g fill="none" stroke="url(#mPetal)" stroke-width="1.8" stroke-linecap="round">
      <path d="M 256 96     Q 385.3 78  408.2 206.6"/>
      <path d="M 408.2 206.6 Q 465.2 324 350.0 385.4"/>
      <path d="M 350.0 385.4 Q 256 476  162.0 385.4"/>
      <path d="M 162.0 385.4 Q 46.8 324 103.8 206.6"/>
      <path d="M 103.8 206.6 Q 126.7 78 256 96"/>
    </g>

    <!-- 内层节点（黄金比 r=98.8，旋转 36°）：极小蓝紫呼应点 -->
    <g fill="#a5f3fc" fill-opacity="0.65">
      <circle cx="314.1" cy="176.1" r="1.8"/>
      <circle cx="350.0" cy="286.5" r="1.8"/>
      <circle cx="256.0" cy="354.8" r="1.8"/>
      <circle cx="162.0" cy="286.5" r="1.8"/>
      <circle cx="197.9" cy="176.1" r="1.8"/>
    </g>

    <!-- 五节点（外层 r=160）：4 cyan + 1 magenta，每节点 = 外辉光 + 实心核 + 内白高光 -->
    <!-- N0 顶 -->
    <g>
      <circle cx="256" cy="96" r="22" fill="url(#mNodeGlow)"/>
      <circle cx="256" cy="96" r="9.5" fill="#5eead4"/>
      <circle cx="256" cy="96" r="9.5" fill="none" stroke="#a5f3fc" stroke-width="1.4"/>
      <circle cx="256" cy="96" r="3" fill="#f0fdfa"/>
    </g>
    <!-- N2 右下 -->
    <g>
      <circle cx="350.0" cy="385.4" r="22" fill="url(#mNodeGlow)"/>
      <circle cx="350.0" cy="385.4" r="9.5" fill="#5eead4"/>
      <circle cx="350.0" cy="385.4" r="9.5" fill="none" stroke="#a5f3fc" stroke-width="1.4"/>
      <circle cx="350.0" cy="385.4" r="3" fill="#f0fdfa"/>
    </g>
    <!-- N3 左下 -->
    <g>
      <circle cx="162.0" cy="385.4" r="22" fill="url(#mNodeGlow)"/>
      <circle cx="162.0" cy="385.4" r="9.5" fill="#5eead4"/>
      <circle cx="162.0" cy="385.4" r="9.5" fill="none" stroke="#a5f3fc" stroke-width="1.4"/>
      <circle cx="162.0" cy="385.4" r="3" fill="#f0fdfa"/>
    </g>
    <!-- N4 左上 -->
    <g>
      <circle cx="103.8" cy="206.6" r="22" fill="url(#mNodeGlow)"/>
      <circle cx="103.8" cy="206.6" r="9.5" fill="#5eead4"/>
      <circle cx="103.8" cy="206.6" r="9.5" fill="none" stroke="#a5f3fc" stroke-width="1.4"/>
      <circle cx="103.8" cy="206.6" r="3" fill="#f0fdfa"/>
    </g>

    <!-- N1 右上 = magenta 奇点：极淡指示线 + 三层辉光 + 标注 -->
    <line x1="256" y1="256" x2="408.2" y2="206.6" stroke="#f472b6" stroke-width="1" stroke-opacity="0.55" stroke-dasharray="2 4"/>
    <circle cx="408.2" cy="206.6" r="36" fill="url(#mPinkGlow)"/>
    <circle cx="408.2" cy="206.6" r="11" fill="#f472b6"/>
    <circle cx="408.2" cy="206.6" r="11" fill="none" stroke="#fbcfe8" stroke-width="1.4"/>
    <circle cx="408.2" cy="206.6" r="3.4" fill="#fdf2f8"/>
    <path d="M691 213Q800 213 868 237Q997 283 997 408Q997 481 933 521Q869 560 732 590L576 625Q346 677 258 738Q109 840 109 1057Q109 1255 253.0 1386.0Q397 1517 676 1517Q909 1517 1073.5 1393.5Q1238 1270 1246 1035H950Q942 1168 834 1224Q762 1261 655 1261Q536 1261 465.0 1213.0Q394 1165 394 1079Q394 1000 464 961Q509 935 656 900L910 839Q1077 799 1162 732Q1294 628 1294 431Q1294 229 1139.5 95.5Q985 -38 703 -38Q415 -38 250.0 93.5Q85 225 85 455H379Q393 354 434 304Q509 213 691 213Z" transform="translate(430.00,200.00) scale(0.0044,-0.0044)" fill="#f472b6"/>
<path d="M132 1474H438V0H132Z" transform="translate(437.50,200.00) scale(0.0044,-0.0044)" fill="#f472b6"/>
<path d="M1348 0H1040L438 1047V0H151V1474H474L1061 445V1474H1348Z" transform="translate(441.50,200.00) scale(0.0044,-0.0044)" fill="#f472b6"/>
<path d="M1060 36Q938 -39 760 -39Q467 -39 280 164Q85 368 85 722Q85 1080 282 1296Q479 1512 803 1512Q1084 1512 1254.5 1369.5Q1425 1227 1450 1014H1147Q1112 1165 976 1225Q900 1258 807 1258Q629 1258 514.5 1123.5Q400 989 400 719Q400 447 524.0 334.0Q648 221 806 221Q961 221 1060.0 310.5Q1159 400 1182 545H841V791H1455V0H1251L1220 184Q1131 79 1060 36Z" transform="translate(449.50,200.00) scale(0.0044,-0.0044)" fill="#f472b6"/>
<path d="M1028 568V1474H1341V568Q1341 333 1268 202Q1132 -38 749 -38Q366 -38 229 202Q156 333 156 568V1474H469V568Q469 416 505 346Q561 222 749 222Q936 222 992 346Q1028 416 1028 568Z" transform="translate(458.00,200.00) scale(0.0044,-0.0044)" fill="#f472b6"/>
<path d="M156 1474H464V265H1194V0H156Z" transform="translate(466.00,200.00) scale(0.0044,-0.0044)" fill="#f472b6"/>
<path d="M1019 303H476L374 0H52L578 1474H926L1448 0H1114ZM933 557 749 1137 559 557Z" transform="translate(473.00,200.00) scale(0.0044,-0.0044)" fill="#f472b6"/>
<path d="M782 578H464V0H163V1474H886Q1041 1471 1124.5 1436.0Q1208 1401 1266 1333Q1314 1277 1342.0 1209.0Q1370 1141 1370 1054Q1370 949 1317.0 847.5Q1264 746 1142 704Q1244 663 1286.5 587.5Q1329 512 1329 357V258Q1329 157 1337 121Q1349 64 1393 37V0H1054Q1040 49 1034 79Q1022 141 1021 206L1019 343Q1017 484 967.5 531.0Q918 578 782 578ZM969 846Q1061 888 1061 1012Q1061 1146 972 1192Q922 1218 822 1218H464V822H813Q917 822 969 846Z" transform="translate(481.00,200.00) scale(0.0044,-0.0044)" fill="#f472b6"/>
<path d="M132 1474H438V0H132Z" transform="translate(489.00,200.00) scale(0.0044,-0.0044)" fill="#f472b6"/>
<path d="M1227 1474V1213H786V0H476V1213H33V1474Z" transform="translate(493.00,200.00) scale(0.0044,-0.0044)" fill="#f472b6"/>
<path d="M1346 1474 853 554V0H545V554L35 1474H398L704 832L997 1474Z" transform="translate(500.00,200.00) scale(0.0044,-0.0044)" fill="#f472b6"/>
    <path d="M30 1071H263L509 694L758 1071L977 1066L616 549L993 0H763L497 402L239 0H11L388 549Z" transform="translate(430.00,214.00) scale(0.0044,-0.0044)" fill="#f472b6"/>
<path d="M1135 822V654H92V822ZM1135 393V222H92V393Z" transform="translate(440.00,214.00) scale(0.0044,-0.0044)" fill="#f472b6"/>
<path d="M956 1203Q1052 1026 1052 718Q1052 426 965 235Q839 -39 553 -39Q295 -39 169 185Q64 372 64 687Q64 931 127 1106Q245 1432 554 1432Q832 1432 956 1203ZM858 711Q858 955 798.0 1112.5Q738 1270 565 1270Q406 1270 332.5 1120.5Q259 971 259 680Q259 461 306 328Q378 125 552 125Q692 125 775.0 249.0Q858 373 858 711Z" transform="translate(450.76,214.00) scale(0.0044,-0.0044)" fill="#f472b6"/>
<path d="M175 218H384V0H175Z" transform="translate(457.26,214.00) scale(0.0044,-0.0044)" fill="#f472b6"/>
<path d="M1028 1057H850Q834 1142 799 1190Q734 1280 602 1280Q451 1280 362.0 1140.5Q273 1001 263 741Q325 832 419 877Q505 917 611 917Q791 917 925.0 802.0Q1059 687 1059 459Q1059 264 932.0 113.5Q805 -37 570 -37Q369 -37 223.0 115.5Q77 268 77 629Q77 896 142 1082Q267 1438 599 1438Q839 1438 933.5 1313.5Q1028 1189 1028 1057ZM869 444Q869 554 806.0 653.5Q743 753 577 753Q461 753 373.5 676.0Q286 599 286 444Q286 308 365.5 215.5Q445 123 586 123Q728 123 798.5 218.5Q869 314 869 444Z" transform="translate(461.26,214.00) scale(0.0044,-0.0044)" fill="#f472b6"/>
<path d="M196 1014V1152Q391 1171 468.0 1215.5Q545 1260 583 1426H725V0H533V1014Z" transform="translate(467.77,214.00) scale(0.0044,-0.0044)" fill="#f472b6"/>
<path d="M810 1057Q810 1137 746.0 1204.0Q682 1271 551 1271Q421 1271 363.0 1204.0Q305 1137 305 1047Q305 946 380.0 889.0Q455 832 557 832Q676 832 743.0 898.5Q810 965 810 1057ZM858 392Q858 531 773.0 603.0Q688 675 555 675Q426 675 344.5 601.5Q263 528 263 398Q263 286 337.5 204.5Q412 123 568 123Q693 123 775.5 190.5Q858 258 858 392ZM195 838Q116 918 116 1046Q116 1206 232.0 1321.0Q348 1436 561 1436Q767 1436 884.0 1327.5Q1001 1219 1001 1074Q1001 940 933 857Q895 810 815 765Q904 724 955 671Q1050 571 1050 411Q1050 222 923.0 90.5Q796 -41 564 -41Q355 -41 210.5 72.5Q66 186 66 402Q66 529 128.0 621.5Q190 714 312 763Q237 795 195 838Z" transform="translate(474.27,214.00) scale(0.0044,-0.0044)" fill="#f472b6"/>

    <!-- 中心几何核：六边形 + 同心环 + 中心点 -->
    <circle cx="256" cy="256" r="22" fill="none" stroke="#5eead4" stroke-width="1" stroke-opacity="0.40" stroke-dasharray="2 3"/>
    <polygon points="268,256 262,245.61 250,245.61 244,256 250,266.39 262,266.39"
             fill="none" stroke="#a5f3fc" stroke-width="1.2" stroke-opacity="0.85" stroke-linejoin="round"/>
    <circle cx="256" cy="256" r="2.4" fill="#f8fafc"/>

  </g>
</svg>
