<svg xmlns="http://www.w3.org/2000/svg" viewBox="0 0 1280 400" role="img" aria-label="Peace Lab — Cognitive Research Lab">
  <title>Peace Lab — Cognitive Research Lab</title>
  <desc>Horizontal lockup: instrument-panel mark + large wordmark with magenta singularity dot, full-bleed datum line, mono journal-style headers.</desc>
  <defs>
    <linearGradient id="hBg" x1="0%" y1="0%" x2="100%" y2="100%">
      <stop offset="0%" stop-color="#0a0f1c"/>
      <stop offset="100%" stop-color="#0d1426"/>
    </linearGradient>
    <pattern id="hGrid" x="0" y="0" width="16" height="16" patternUnits="userSpaceOnUse">
      <path d="M 16 0 L 0 0 0 16" fill="none" stroke="#1a2238" stroke-width="0.6"/>
    </pattern>
    <radialGradient id="hCyanGlow" cx="50%" cy="50%" r="50%">
      <stop offset="0%" stop-color="#a5f3fc" stop-opacity="0.55"/>
      <stop offset="55%" stop-color="#22d3ee" stop-opacity="0.18"/>
      <stop offset="100%" stop-color="#22d3ee" stop-opacity="0"/>
    </radialGradient>
    <radialGradient id="hPinkGlow" cx="50%" cy="50%" r="50%">
      <stop offset="0%" stop-color="#f472b6" stop-opacity="0.65"/>
      <stop offset="100%" stop-color="#f472b6" stop-opacity="0"/>
    </radialGradient>
    <linearGradient id="hPetal" x1="0%" y1="0%" x2="100%" y2="100%">
      <stop offset="0%" stop-color="#22d3ee" stop-opacity="0.85"/>
      <stop offset="100%" stop-color="#5eead4" stop-opacity="0.85"/>
    </linearGradient>
    <linearGradient id="hSpiral" x1="0%" y1="0%" x2="100%" y2="100%">
      <stop offset="0%" stop-color="#a5f3fc" stop-opacity="0.95"/>
      <stop offset="100%" stop-color="#22d3ee" stop-opacity="0.50"/>
    </linearGradient>
    <linearGradient id="hLine" x1="0%" y1="0%" x2="100%" y2="0%">
      <stop offset="0%" stop-color="#22d3ee" stop-opacity="0"/>
      <stop offset="20%" stop-color="#22d3ee" stop-opacity="0.85"/>
      <stop offset="80%" stop-color="#5eead4" stop-opacity="0.85"/>
      <stop offset="100%" stop-color="#5eead4" stop-opacity="0"/>
    </linearGradient>

    <!-- 复用 mark -->
    <symbol id="hMark" viewBox="0 0 512 512">
      <rect width="512" height="512" rx="72" fill="#0a0f1c"/>
      <rect width="512" height="512" rx="72" fill="url(#hGrid)" opacity="0.5"/>
      <rect x="0.5" y="0.5" width="511" height="511" rx="71.5" fill="none" stroke="#22d3ee" stroke-opacity="0.22" stroke-width="1"/>
      <g stroke="#22d3ee" stroke-opacity="0.45" stroke-width="1" fill="none">
        <path d="M 28 44 L 28 28 L 44 28"/>
        <path d="M 484 28 L 468 28 L 468 44"/>
        <path d="M 28 468 L 28 484 L 44 484"/>
        <path d="M 484 484 L 484 468 L 468 468"/>
      </g>
      <circle cx="256" cy="256" r="180" fill="url(#hCyanGlow)"/>
      <circle cx="256" cy="256" r="200" fill="none" stroke="#22d3ee" stroke-opacity="0.10" stroke-width="1"/>
      <circle cx="256" cy="256" r="160" fill="none" stroke="#22d3ee" stroke-opacity="0.55" stroke-width="2.5"/>
      <circle cx="256" cy="256" r="128" fill="none" stroke="#5eead4" stroke-opacity="0.30" stroke-width="1" stroke-dasharray="1 5"/>
      <circle cx="256" cy="256" r="98.8" fill="none" stroke="#22d3ee" stroke-opacity="0.20" stroke-width="1"/>
      <circle cx="256" cy="256" r="61" fill="none" stroke="#5eead4" stroke-opacity="0.30" stroke-width="1" stroke-dasharray="2 4"/>
      <path d="M 268 256 A 12 12 0 0 1 256 244 A 19.4 19.4 0 0 1 236.6 263.4 A 31.4 31.4 0 0 1 268 294.8 A 50.8 50.8 0 0 1 318.8 244 A 82.2 82.2 0 0 1 236.6 161.8 A 133 133 0 0 1 369.6 28.8" fill="none" stroke="url(#hSpiral)" stroke-width="1.5" stroke-opacity="0.75" stroke-linecap="round"/>
      <g fill="none" stroke="url(#hPetal)" stroke-width="1.6" stroke-linecap="round">
        <path d="M 256 96     Q 296.8 199.8 408.2 206.6"/>
        <path d="M 408.2 206.6 Q 322.0 277.5 350.0 385.4"/>
        <path d="M 350.0 385.4 Q 256 325.4 162.0 385.4"/>
        <path d="M 162.0 385.4 Q 190.0 277.5 103.8 206.6"/>
        <path d="M 103.8 206.6 Q 215.2 199.8 256 96"/>
      </g>
      <g fill="#a5f3fc" fill-opacity="0.55">
        <circle cx="314.1" cy="176.1" r="2"/>
        <circle cx="350.0" cy="286.5" r="2"/>
        <circle cx="256.0" cy="354.8" r="2"/>
        <circle cx="162.0" cy="286.5" r="2"/>
        <circle cx="197.9" cy="176.1" r="2"/>
      </g>
      <g>
        <circle cx="256" cy="96" r="20" fill="#22d3ee" fill-opacity="0.10"/>
        <circle cx="256" cy="96" r="9" fill="#5eead4"/>
        <circle cx="256" cy="96" r="9" fill="none" stroke="#a5f3fc" stroke-width="1.5"/>
        <circle cx="350.0" cy="385.4" r="20" fill="#22d3ee" fill-opacity="0.10"/>
        <circle cx="350.0" cy="385.4" r="9" fill="#5eead4"/>
        <circle cx="350.0" cy="385.4" r="9" fill="none" stroke="#a5f3fc" stroke-width="1.5"/>
        <circle cx="162.0" cy="385.4" r="20" fill="#22d3ee" fill-opacity="0.10"/>
        <circle cx="162.0" cy="385.4" r="9" fill="#5eead4"/>
        <circle cx="162.0" cy="385.4" r="9" fill="none" stroke="#a5f3fc" stroke-width="1.5"/>
        <circle cx="103.8" cy="206.6" r="20" fill="#22d3ee" fill-opacity="0.10"/>
        <circle cx="103.8" cy="206.6" r="9" fill="#5eead4"/>
        <circle cx="103.8" cy="206.6" r="9" fill="none" stroke="#a5f3fc" stroke-width="1.5"/>
      </g>
      <line x1="256" y1="256" x2="408.2" y2="206.6" stroke="#f472b6" stroke-width="1" stroke-opacity="0.55" stroke-dasharray="2 4"/>
      <circle cx="408.2" cy="206.6" r="34" fill="url(#hPinkGlow)"/>
      <circle cx="408.2" cy="206.6" r="11" fill="#f472b6"/>
      <circle cx="408.2" cy="206.6" r="11" fill="none" stroke="#fbcfe8" stroke-width="1.5"/>
      <circle cx="256" cy="256" r="22" fill="none" stroke="#5eead4" stroke-width="1" stroke-opacity="0.45"/>
      <circle cx="256" cy="256" r="10" fill="none" stroke="#a5f3fc" stroke-width="1.5"/>
      <circle cx="256" cy="256" r="3.5" fill="#f8fafc"/>
    </symbol>
  </defs>

  <!-- 背景 -->
  <rect width="1280" height="400" fill="url(#hBg)"/>
  <rect width="1280" height="400" fill="url(#hGrid)" opacity="0.55"/>

  <!-- 顶部贯穿基准线 + 端帽 -->
  <line x1="40" y1="48" x2="1240" y2="48" stroke="#22d3ee" stroke-opacity="0.30" stroke-width="1"/>
  <rect x="36" y="44" width="8" height="8" fill="#22d3ee" fill-opacity="0.65"/>
  <rect x="1236" y="44" width="8" height="8" fill="#22d3ee" fill-opacity="0.65"/>

  <!-- 顶部 journal header -->
  <path d="M1201 1213H462V874H1109V618H462V0H156V1472H1201Z" transform="translate(60.00,42.00) scale(0.0063,-0.0063)" fill="#22d3ee"/>
<path d="M132 1474H438V0H132Z" transform="translate(70.94,42.00) scale(0.0063,-0.0063)" fill="#22d3ee"/>
<path d="M1060 36Q938 -39 760 -39Q467 -39 280 164Q85 368 85 722Q85 1080 282 1296Q479 1512 803 1512Q1084 1512 1254.5 1369.5Q1425 1227 1450 1014H1147Q1112 1165 976 1225Q900 1258 807 1258Q629 1258 514.5 1123.5Q400 989 400 719Q400 447 524.0 334.0Q648 221 806 221Q961 221 1060.0 310.5Q1159 400 1182 545H841V791H1455V0H1251L1220 184Q1131 79 1060 36Z" transform="translate(77.55,42.00) scale(0.0063,-0.0063)" fill="#22d3ee"/>
<path d="M128 298H431V0H128Z" transform="translate(90.66,42.00) scale(0.0063,-0.0063)" fill="#22d3ee"/>
<path d="M564 -36Q287 -36 175.5 158.0Q64 352 64 711Q64 1070 175.5 1265.0Q287 1460 564 1460Q841 1460 953 1265Q1064 1070 1064 711Q1064 352 952.5 158.0Q841 -36 564 -36ZM731 329Q770 461 770 711Q770 973 730.5 1099.0Q691 1225 564 1225Q437 1225 396.0 1099.0Q355 973 355 711Q355 461 396.0 328.5Q437 196 564 196Q691 196 731 329Z" transform="translate(97.28,42.00) scale(0.0063,-0.0063)" fill="#22d3ee"/>
<path d="M775 0H483V1000H142V1194Q277 1200 331 1212Q417 1231 471 1288Q508 1327 527 1392Q538 1431 538 1450H775Z" transform="translate(107.51,42.00) scale(0.0063,-0.0063)" fill="#22d3ee"/>
<path d="M241 682H1806V464H241Z" transform="translate(124.35,42.00) scale(0.0063,-0.0063)" fill="#22d3ee"/>
<path d="M1196 110Q1031 -41 774 -41Q456 -41 274 163Q92 368 92 725Q92 1111 299 1320Q479 1502 757 1502Q1129 1502 1301 1258Q1396 1121 1403 983H1095Q1065 1089 1018 1143Q934 1239 769 1239Q601 1239 504.0 1103.5Q407 968 407 720Q407 472 509.5 348.5Q612 225 770 225Q932 225 1017 331Q1064 388 1095 502H1400Q1360 261 1196 110Z" transform="translate(146.96,42.00) scale(0.0063,-0.0063)" fill="#22d3ee"/>
<path d="M808 -41Q492 -41 325 131Q101 342 101 739Q101 1144 325 1347Q492 1519 808 1519Q1124 1519 1291 1347Q1514 1144 1514 739Q1514 342 1291 131Q1124 -41 808 -41ZM1099 355Q1206 490 1206 739Q1206 987 1098.5 1122.5Q991 1258 808 1258Q625 1258 516.0 1123.0Q407 988 407 739Q407 490 516.0 355.0Q625 220 808 220Q991 220 1099 355Z" transform="translate(159.35,42.00) scale(0.0063,-0.0063)" fill="#22d3ee"/>
<path d="M1060 36Q938 -39 760 -39Q467 -39 280 164Q85 368 85 722Q85 1080 282 1296Q479 1512 803 1512Q1084 1512 1254.5 1369.5Q1425 1227 1450 1014H1147Q1112 1165 976 1225Q900 1258 807 1258Q629 1258 514.5 1123.5Q400 989 400 719Q400 447 524.0 334.0Q648 221 806 221Q961 221 1060.0 310.5Q1159 400 1182 545H841V791H1455V0H1251L1220 184Q1131 79 1060 36Z" transform="translate(172.46,42.00) scale(0.0063,-0.0063)" fill="#22d3ee"/>
<path d="M1348 0H1040L438 1047V0H151V1474H474L1061 445V1474H1348Z" transform="translate(185.57,42.00) scale(0.0063,-0.0063)" fill="#22d3ee"/>
<path d="M132 1474H438V0H132Z" transform="translate(197.96,42.00) scale(0.0063,-0.0063)" fill="#22d3ee"/>
<path d="M1227 1474V1213H786V0H476V1213H33V1474Z" transform="translate(204.57,42.00) scale(0.0063,-0.0063)" fill="#22d3ee"/>
<path d="M132 1474H438V0H132Z" transform="translate(215.51,42.00) scale(0.0063,-0.0063)" fill="#22d3ee"/>
<path d="M47 1474H376L696 355L1019 1474H1339L836 0H545Z" transform="translate(222.12,42.00) scale(0.0063,-0.0063)" fill="#22d3ee"/>
<path d="M1182 644H466V265H1282V0H165V1474H1246V1213H466V900H1182Z" transform="translate(233.80,42.00) scale(0.0063,-0.0063)" fill="#22d3ee"/>
<path d="M128 298H431V0H128Z" transform="translate(245.47,42.00) scale(0.0063,-0.0063)" fill="#22d3ee"/>
<path d="M782 578H464V0H163V1474H886Q1041 1471 1124.5 1436.0Q1208 1401 1266 1333Q1314 1277 1342.0 1209.0Q1370 1141 1370 1054Q1370 949 1317.0 847.5Q1264 746 1142 704Q1244 663 1286.5 587.5Q1329 512 1329 357V258Q1329 157 1337 121Q1349 64 1393 37V0H1054Q1040 49 1034 79Q1022 141 1021 206L1019 343Q1017 484 967.5 531.0Q918 578 782 578ZM969 846Q1061 888 1061 1012Q1061 1146 972 1192Q922 1218 822 1218H464V822H813Q917 822 969 846Z" transform="translate(252.08,42.00) scale(0.0063,-0.0063)" fill="#22d3ee"/>
<path d="M1182 644H466V265H1282V0H165V1474H1246V1213H466V900H1182Z" transform="translate(264.47,42.00) scale(0.0063,-0.0063)" fill="#22d3ee"/>
<path d="M691 213Q800 213 868 237Q997 283 997 408Q997 481 933 521Q869 560 732 590L576 625Q346 677 258 738Q109 840 109 1057Q109 1255 253.0 1386.0Q397 1517 676 1517Q909 1517 1073.5 1393.5Q1238 1270 1246 1035H950Q942 1168 834 1224Q762 1261 655 1261Q536 1261 465.0 1213.0Q394 1165 394 1079Q394 1000 464 961Q509 935 656 900L910 839Q1077 799 1162 732Q1294 628 1294 431Q1294 229 1139.5 95.5Q985 -38 703 -38Q415 -38 250.0 93.5Q85 225 85 455H379Q393 354 434 304Q509 213 691 213Z" transform="translate(276.14,42.00) scale(0.0063,-0.0063)" fill="#22d3ee"/>
<path d="M1182 644H466V265H1282V0H165V1474H1246V1213H466V900H1182Z" transform="translate(287.81,42.00) scale(0.0063,-0.0063)" fill="#22d3ee"/>
<path d="M1019 303H476L374 0H52L578 1474H926L1448 0H1114ZM933 557 749 1137 559 557Z" transform="translate(299.48,42.00) scale(0.0063,-0.0063)" fill="#22d3ee"/>
<path d="M782 578H464V0H163V1474H886Q1041 1471 1124.5 1436.0Q1208 1401 1266 1333Q1314 1277 1342.0 1209.0Q1370 1141 1370 1054Q1370 949 1317.0 847.5Q1264 746 1142 704Q1244 663 1286.5 587.5Q1329 512 1329 357V258Q1329 157 1337 121Q1349 64 1393 37V0H1054Q1040 49 1034 79Q1022 141 1021 206L1019 343Q1017 484 967.5 531.0Q918 578 782 578ZM969 846Q1061 888 1061 1012Q1061 1146 972 1192Q922 1218 822 1218H464V822H813Q917 822 969 846Z" transform="translate(311.87,42.00) scale(0.0063,-0.0063)" fill="#22d3ee"/>
<path d="M1196 110Q1031 -41 774 -41Q456 -41 274 163Q92 368 92 725Q92 1111 299 1320Q479 1502 757 1502Q1129 1502 1301 1258Q1396 1121 1403 983H1095Q1065 1089 1018 1143Q934 1239 769 1239Q601 1239 504.0 1103.5Q407 968 407 720Q407 472 509.5 348.5Q612 225 770 225Q932 225 1017 331Q1064 388 1095 502H1400Q1360 261 1196 110Z" transform="translate(324.26,42.00) scale(0.0063,-0.0063)" fill="#22d3ee"/>
<path d="M1035 0V658H459V0H154V1474H459V912H1035V1474H1341V0Z" transform="translate(336.64,42.00) scale(0.0063,-0.0063)" fill="#22d3ee"/>
<path d="M128 298H431V0H128Z" transform="translate(349.03,42.00) scale(0.0063,-0.0063)" fill="#22d3ee"/>
<path d="M156 1474H464V265H1194V0H156Z" transform="translate(355.64,42.00) scale(0.0063,-0.0063)" fill="#22d3ee"/>
<path d="M1019 303H476L374 0H52L578 1474H926L1448 0H1114ZM933 557 749 1137 559 557Z" transform="translate(366.58,42.00) scale(0.0063,-0.0063)" fill="#22d3ee"/>
<path d="M829 0H161V1474H877Q1148 1470 1261 1317Q1329 1223 1329 1092Q1329 957 1261 875Q1223 829 1149 791Q1262 750 1319.5 661.0Q1377 572 1377 445Q1377 314 1311 210Q1269 141 1206 94Q1135 40 1038.5 20.0Q942 0 829 0ZM822 649H455V256H817Q914 256 968 282Q1066 330 1066 466Q1066 581 971 624Q918 648 822 649ZM975 930Q1035 966 1035 1059Q1035 1162 955 1195Q886 1218 779 1218H455V893H817Q914 893 975 930Z" transform="translate(378.97,42.00) scale(0.0063,-0.0063)" fill="#22d3ee"/>
  <path d="M47 1474H376L696 355L1019 1474H1339L836 0H545Z" transform="translate(1066.75,42.00) scale(0.0063,-0.0063)" fill="#22d3ee"/>
<path d="M808 -41Q492 -41 325 131Q101 342 101 739Q101 1144 325 1347Q492 1519 808 1519Q1124 1519 1291 1347Q1514 1144 1514 739Q1514 342 1291 131Q1124 -41 808 -41ZM1099 355Q1206 490 1206 739Q1206 987 1098.5 1122.5Q991 1258 808 1258Q625 1258 516.0 1123.0Q407 988 407 739Q407 490 516.0 355.0Q625 220 808 220Q991 220 1099 355Z" transform="translate(1078.42,42.00) scale(0.0063,-0.0063)" fill="#22d3ee"/>
<path d="M156 1474H464V265H1194V0H156Z" transform="translate(1091.53,42.00) scale(0.0063,-0.0063)" fill="#22d3ee"/>
<path d="M128 298H431V0H128Z" transform="translate(1102.47,42.00) scale(0.0063,-0.0063)" fill="#22d3ee"/>
<path d="M372 327Q194 327 109.5 442.0Q25 557 25 737Q25 911 120.0 1025.5Q215 1140 372 1140Q466 1140 549.0 1091.0Q632 1042 713 917Q797 1037 875.0 1089.0Q953 1141 1060 1141Q1233 1141 1325.0 1026.0Q1417 911 1417 737Q1417 557 1327.5 443.0Q1238 329 1060 329Q950 329 858 404Q792 459 732 554Q663 443 571.0 385.0Q479 327 372 327ZM372 536Q463 536 509.0 586.0Q555 636 602 737Q546 846 497.5 888.0Q449 930 372 930Q311 930 268.0 876.0Q225 822 225 737Q225 645 265.5 590.5Q306 536 372 536ZM942 586Q986 536 1060 536Q1137 536 1179.0 590.5Q1221 645 1221 737Q1221 822 1178.5 874.0Q1136 926 1060 926Q985 926 945.5 886.0Q906 846 850 730Q897 636 942 586Z" transform="translate(1109.08,42.00) scale(0.0063,-0.0063)" fill="#22d3ee"/>
<path d="M-112 0 459 1519H696L123 0Z" transform="translate(1127.96,42.00) scale(0.0063,-0.0063)" fill="#22d3ee"/>
<path d="M1182 644H466V265H1282V0H165V1474H1246V1213H466V900H1182Z" transform="translate(1141.19,42.00) scale(0.0063,-0.0063)" fill="#22d3ee"/>
<path d="M691 213Q800 213 868 237Q997 283 997 408Q997 481 933 521Q869 560 732 590L576 625Q346 677 258 738Q109 840 109 1057Q109 1255 253.0 1386.0Q397 1517 676 1517Q909 1517 1073.5 1393.5Q1238 1270 1246 1035H950Q942 1168 834 1224Q762 1261 655 1261Q536 1261 465.0 1213.0Q394 1165 394 1079Q394 1000 464 961Q509 935 656 900L910 839Q1077 799 1162 732Q1294 628 1294 431Q1294 229 1139.5 95.5Q985 -38 703 -38Q415 -38 250.0 93.5Q85 225 85 455H379Q393 354 434 304Q509 213 691 213Z" transform="translate(1152.86,42.00) scale(0.0063,-0.0063)" fill="#22d3ee"/>
<path d="M1227 1474V1213H786V0H476V1213H33V1474Z" transform="translate(1164.53,42.00) scale(0.0063,-0.0063)" fill="#22d3ee"/>
<path d="M128 298H431V0H128Z" transform="translate(1175.47,42.00) scale(0.0063,-0.0063)" fill="#22d3ee"/>
<path d="M712 1155Q661 1216 566 1216Q436 1216 389 1119Q362 1063 357 941H80Q87 1126 147 1240Q261 1457 552 1457Q782 1457 918.0 1329.5Q1054 1202 1054 992Q1054 831 958 706Q895 623 751 521L637 440Q530 364 490.5 330.0Q451 296 424 251H1057V0H64Q68 156 131 285Q192 430 419 592Q616 733 674 794Q763 889 763 1002Q763 1094 712 1155Z" transform="translate(1182.08,42.00) scale(0.0063,-0.0063)" fill="#22d3ee"/>
<path d="M564 -36Q287 -36 175.5 158.0Q64 352 64 711Q64 1070 175.5 1265.0Q287 1460 564 1460Q841 1460 953 1265Q1064 1070 1064 711Q1064 352 952.5 158.0Q841 -36 564 -36ZM731 329Q770 461 770 711Q770 973 730.5 1099.0Q691 1225 564 1225Q437 1225 396.0 1099.0Q355 973 355 711Q355 461 396.0 328.5Q437 196 564 196Q691 196 731 329Z" transform="translate(1192.31,42.00) scale(0.0063,-0.0063)" fill="#22d3ee"/>
<path d="M712 1155Q661 1216 566 1216Q436 1216 389 1119Q362 1063 357 941H80Q87 1126 147 1240Q261 1457 552 1457Q782 1457 918.0 1329.5Q1054 1202 1054 992Q1054 831 958 706Q895 623 751 521L637 440Q530 364 490.5 330.0Q451 296 424 251H1057V0H64Q68 156 131 285Q192 430 419 592Q616 733 674 794Q763 889 763 1002Q763 1094 712 1155Z" transform="translate(1202.54,42.00) scale(0.0063,-0.0063)" fill="#22d3ee"/>
<path d="M626 941Q819 941 942.5 810.0Q1066 679 1066 475Q1066 272 945.0 117.0Q824 -38 569 -38Q295 -38 165 191Q64 370 64 653Q64 819 78 923Q103 1108 175 1231Q237 1336 337.5 1400.0Q438 1464 578 1464Q780 1464 900.0 1360.5Q1020 1257 1035 1085H751Q751 1120 724 1162Q678 1230 585 1230Q446 1230 387 1074Q355 988 343 820Q396 883 466.0 912.0Q536 941 626 941ZM434 669Q350 604 350 459Q350 342 413.0 268.0Q476 194 573 194Q668 194 722.5 265.5Q777 337 777 451Q777 578 715.0 645.5Q653 713 563 713Q490 713 434 669Z" transform="translate(1212.77,42.00) scale(0.0063,-0.0063)" fill="#22d3ee"/>

  <!-- 左侧 mark -->
  <use href="#hMark" x="56" y="60" width="280" height="280"/>

  <!-- 主标 PEACE LAB（中间 magenta 奇点作为分隔符） -->
  <path d="M175 1469H836Q1032 1469 1152.0 1358.5Q1272 1248 1272 1048Q1272 876 1165.0 748.5Q1058 621 836 621H374V0H175ZM951 1267Q885 1298 770 1298H374V789H770Q904 789 987.5 846.0Q1071 903 1071 1047Q1071 1209 951 1267Z" transform="translate(380.00,218.00) scale(0.0723,-0.0723)" fill="#f8fafc"/>
<path d="M175 1469H1246V1289H369V843H1180V673H369V175H1261V0H175ZM718 1469Z" transform="translate(474.71,218.00) scale(0.0723,-0.0723)" fill="#f8fafc"/>
<path d="M910 602 687 1251 450 602ZM583 1469H808L1341 0H1123L974 440H393L234 0H30Z" transform="translate(569.43,218.00) scale(0.0723,-0.0723)" fill="#f8fafc"/>
<path d="M1379 1028H1185Q1152 1170 1053.5 1253.0Q955 1336 777 1336Q560 1336 426.5 1183.5Q293 1031 293 716Q293 458 413.5 297.5Q534 137 773 137Q993 137 1108 306Q1169 395 1199 540H1393Q1367 308 1221 151Q1046 -38 749 -38Q493 -38 319 117Q90 322 90 750Q90 1075 262 1283Q448 1509 775 1509Q1054 1509 1208.0 1362.0Q1362 1215 1379 1028ZM735 1509Z" transform="translate(664.14,218.00) scale(0.0723,-0.0723)" fill="#f8fafc"/>
<path d="M175 1469H1246V1289H369V843H1180V673H369V175H1261V0H175ZM718 1469Z" transform="translate(767.03,218.00) scale(0.0723,-0.0723)" fill="#f8fafc"/>
  <!-- magenta 奇点：在 PEACE 与 LAB 之间的间距中 -->
  <g transform="translate(932,176)">
    <circle r="34" fill="url(#hPinkGlow)"/>
    <circle r="14" fill="#f472b6"/>
    <circle r="14" fill="none" stroke="#fbcfe8" stroke-width="1.5"/>
  </g>
  <path d="M156 1469H355V175H1099V0H156Z" transform="translate(980.00,218.00) scale(0.0723,-0.0723)" fill="#f8fafc"/>
<path d="M910 602 687 1251 450 602ZM583 1469H808L1341 0H1123L974 440H393L234 0H30Z" transform="translate(1058.31,218.00) scale(0.0723,-0.0723)" fill="#f8fafc"/>
<path d="M708 848Q834 848 904 883Q1014 938 1014 1081Q1014 1225 897 1275Q831 1303 701 1303H346V848ZM775 170Q958 170 1036 276Q1085 343 1085 438Q1085 598 942 656Q866 687 741 687H346V170ZM151 1469H782Q1040 1469 1149 1315Q1213 1224 1213 1105Q1213 966 1134 877Q1093 830 1016 791Q1129 748 1185 694Q1284 598 1284 429Q1284 287 1195 172Q1062 0 772 0H151Z" transform="translate(1153.03,218.00) scale(0.0723,-0.0723)" fill="#f8fafc"/>

  <!-- 主标基准线（与 mark 内基线呼应） -->
  <line x1="380" y1="246" x2="1186" y2="246" stroke="url(#hLine)" stroke-width="2"/>
  <rect x="376" y="242" width="8" height="8" fill="#22d3ee" fill-opacity="0.85"/>
  <rect x="1184" y="242" width="8" height="8" fill="#5eead4" fill-opacity="0.85"/>

  <!-- 中文副标 -->
  <path d="M431 690C440 710 459 756 469 780C478 805 482 814 488 825L414 840C408 801 393 755 364 690H178C125 690 93 692 68 696V626C95 629 128 631 178 631H336C301 564 288 544 253 495H198C201 475 202 458 203 431C152 371 111 333 42 280C64 263 77 250 90 229C140 271 158 289 203 339V34C203 -14 201 -43 197 -69H273C269 -41 267 -10 267 34V415C310 470 370 565 403 631H833C881 631 915 629 942 626V696C917 692 885 690 833 690ZM641 375V459C641 516 643 544 647 566H569C573 542 575 514 575 460V375H441C393 375 369 377 345 381V314C372 317 398 318 441 318H575V35H405C365 35 335 37 305 40V-29C334 -25 365 -23 405 -23H839C874 -23 901 -25 939 -29V40C915 36 889 35 840 35H641V318H798C840 318 866 317 893 314V381C869 377 845 375 798 375Z" transform="translate(380.00,288.00) scale(0.0220,-0.0220)" fill="#cbd5e1"/>
<path d="M767 37C781 -14 781 -14 792 -54L847 -32C813 78 799 117 753 222L704 206C728 153 736 133 752 85L647 58L648 708C703 718 703 718 785 737C787 595 787 595 788 579C791 477 801 362 815 282C839 141 875 43 945 -73C961 -45 970 -34 993 -11C946 59 931 88 911 146C882 230 865 318 855 438C846 536 846 536 844 753C873 761 901 771 926 780L872 833C802 790 565 739 435 739C429 739 418 740 404 741C408 706 409 658 409 579C409 382 395 234 368 142C351 83 324 34 284 -16C305 -30 319 -44 334 -64C379 2 404 50 421 104C453 205 469 366 469 577V688C513 691 559 695 587 699L588 87C585 59 581 52 559 35L581 -19C601 -10 616 -6 644 2C707 19 707 19 735 28ZM190 397C137 381 74 369 40 368L54 301C81 308 96 312 100 313C133 321 160 328 190 336V24C190 6 185 2 160 2C136 2 102 6 54 13C62 -10 64 -23 66 -51C110 -55 142 -57 173 -57C233 -57 253 -39 253 17V355C315 375 319 377 366 394V455C314 435 297 429 253 415V526C299 588 342 656 370 711C380 730 385 738 393 749L356 787C345 785 327 784 301 784H161C112 784 88 785 65 790V722C90 726 119 728 158 728H311C281 666 257 625 220 575H183C188 545 190 521 190 480Z" transform="translate(408.00,288.00) scale(0.0220,-0.0220)" fill="#cbd5e1"/>
<path d="M156 797C149 805 145 810 145 810L92 771C133 737 159 703 188 646C127 600 104 585 35 552C50 536 60 520 71 498C132 533 164 555 212 592C229 546 241 506 249 460C195 368 133 303 38 241C52 228 63 211 73 188C162 255 215 310 261 381C266 332 267 298 267 241C267 141 259 60 245 24C237 1 225 -8 205 -8C178 -8 138 1 93 16C100 -10 102 -26 103 -52C146 -62 178 -67 207 -67C246 -67 268 -58 286 -36C314 1 328 89 328 230C328 394 306 526 261 633C306 673 343 712 387 768C394 777 395 778 400 784L345 825C326 783 287 734 235 687C219 714 199 743 186 760ZM673 269H809C855 269 878 268 906 265C903 291 902 317 902 364V545C902 588 903 613 906 640C874 636 849 635 811 635H673V722C673 764 675 787 680 815H605C611 783 612 763 612 721V635H491C452 635 425 636 393 640C396 611 397 585 397 540V362C397 321 396 295 394 265C422 268 448 269 490 269H612V40C503 27 412 19 377 19C367 19 363 19 352 20L367 -52C388 -47 402 -45 421 -43C631 -18 743 -1 869 25C881 -3 887 -21 903 -74L962 -44C917 80 896 126 842 218L786 199C816 146 825 129 849 76C786 63 731 54 673 47ZM612 326H457V578H612ZM673 326V578H841V326Z" transform="translate(436.00,288.00) scale(0.0220,-0.0220)" fill="#cbd5e1"/>
<path d="M525 644V732C525 775 527 803 532 834H452C457 803 459 779 459 730V644H181C149 644 130 645 106 648C109 622 111 600 111 569V296C111 264 109 236 105 207H177V275H459V42C459 -12 457 -38 452 -72H532C526 -40 525 -15 525 42V275H823V207H895C891 237 889 263 889 296V569C889 601 890 622 894 648C871 645 852 644 818 644ZM525 584H823V335H525ZM459 335H177V584H459Z" transform="translate(464.00,288.00) scale(0.0220,-0.0220)" fill="#cbd5e1"/>
<path d="M522 736C585 742 666 752 687 756C788 774 840 783 842 784L798 841C761 827 735 820 671 809C530 786 332 770 177 770C164 770 147 770 124 770C138 749 142 739 149 714C262 717 262 717 461 730V653H163C122 653 88 655 62 659V594C92 598 119 600 163 600H461V532H245C211 532 189 533 165 536C168 509 169 494 169 467V288C169 260 168 248 165 220C191 223 211 224 245 224H461V148H228C188 148 155 150 128 154V87C156 91 186 93 228 93H461V9H159C118 9 85 11 58 15V-53C87 -49 116 -47 159 -47H844C887 -47 916 -49 946 -53V15C916 11 887 9 844 9H522V93H774C816 93 846 91 875 87V154C847 150 817 148 774 148H522V224H756C790 224 811 223 837 220C834 245 833 260 833 288V467C833 494 834 509 837 536C813 533 791 532 757 532H522V600H840C883 600 914 598 941 594V659C912 655 882 653 840 653H522ZM461 403H231V483H461ZM522 403V483H771V403ZM461 273H231V354H461ZM522 273V354H771V273Z" transform="translate(492.00,288.00) scale(0.0220,-0.0220)" fill="#cbd5e1"/>
<path d="M642 444H802C829 444 839 444 873 442C872 453 871 476 871 499V581H876C910 581 929 580 951 577V637C927 633 907 631 876 631H871V702C871 717 871 738 872 748C873 760 873 760 873 765C855 763 833 762 800 762H642C642 793 643 817 647 838H579C582 814 584 791 584 762H458C424 762 406 763 384 767V708C407 711 427 712 456 712H584V631H418C373 631 351 633 325 637V576C350 580 375 581 417 581H584V494H456C421 494 404 495 383 499V440C407 443 425 444 453 444H584V358H450C418 358 392 359 368 363V303C392 306 418 308 450 308H584V220H425C386 220 359 222 335 226V164C363 168 385 169 424 169H584V143C584 102 582 79 579 51H647C643 77 642 100 642 144V169H847C888 169 916 168 940 165V226C915 222 888 220 847 220H642V308H801C840 308 865 307 891 304V363C863 359 836 358 802 358H642ZM642 494V581H813V494ZM642 631V712H813V631ZM188 499C229 558 277 642 306 704C316 724 322 736 328 745L299 783C282 780 262 779 225 779H130C100 779 83 780 61 784V719C83 723 101 724 129 724H249C206 629 159 547 87 442C110 444 150 445 178 445H264C248 335 237 294 207 221C171 284 159 314 145 372L85 348C95 326 95 326 129 249C141 220 155 197 178 163C136 90 106 53 31 -14C48 -25 62 -39 78 -63C144 2 180 48 217 113C317 -3 424 -40 657 -40C761 -40 848 -39 938 -37C943 -5 946 2 959 32C865 24 748 19 644 19C436 19 331 57 245 165C285 253 311 346 324 453C329 488 329 488 332 503C315 500 297 499 253 499Z" transform="translate(520.00,288.00) scale(0.0220,-0.0220)" fill="#cbd5e1"/>
<path d="M469 703C491 745 505 776 526 830L454 843C441 791 426 750 400 703H284C230 703 200 704 166 708C170 673 171 643 171 584V53C171 -4 169 -35 165 -64H234V-5H762V-64H832C827 -36 826 -9 826 52V584C826 646 827 675 831 708C796 704 766 703 710 703ZM234 644H763V491H234ZM234 433H763V275H234ZM234 217H763V54H234Z" transform="translate(548.00,288.00) scale(0.0220,-0.0220)" fill="#cbd5e1"/>
<path d="M843 480C885 480 917 478 946 474V543C917 539 888 537 846 537H625C619 604 617 659 617 719C617 774 618 792 623 815H547C551 791 552 778 553 741C555 625 556 612 562 537H326V710C363 721 403 735 450 753C472 761 472 761 476 762C488 766 488 766 494 768L456 824C399 781 221 730 68 712C81 693 89 677 96 657C163 668 190 674 263 693V537H158C113 537 81 539 55 543V474C84 478 116 480 158 480H263V303C134 274 87 265 53 265L70 196C88 203 99 205 122 210C154 216 165 219 263 243V34C263 16 258 12 236 12C202 12 167 15 111 23C121 -2 125 -20 127 -46C168 -49 205 -51 238 -51C305 -51 326 -34 326 18V258C380 272 412 282 508 313L505 372C427 345 400 337 326 318V480H567C580 370 606 270 643 183C565 108 486 59 369 14C393 -7 402 -19 415 -41C525 10 595 55 671 126C734 12 802 -56 854 -56C904 -56 928 -13 954 129C933 141 921 150 900 172C884 63 869 15 850 15C822 15 762 85 717 172C763 224 804 283 839 348C850 368 859 382 871 399L809 433C791 372 748 301 688 232C659 307 642 380 631 480ZM687 761C758 693 787 659 836 592L884 633C835 698 794 741 732 794Z" transform="translate(576.00,288.00) scale(0.0220,-0.0220)" fill="#cbd5e1"/>
<path d="M717 551H832C870 551 901 549 932 545V616C900 612 871 610 831 610H784C813 661 842 720 876 794L810 818C785 738 766 695 720 610H553C513 610 489 611 466 615V546C493 550 515 551 555 551H656V495C656 452 654 423 650 381H539C497 381 472 382 446 386V316C472 320 498 321 539 321H642C625 219 589 143 523 70C490 35 467 16 416 -16C438 -36 447 -47 462 -73C499 -46 515 -33 535 -13C576 29 616 81 641 129C662 167 679 214 689 255C735 112 799 23 929 -75C942 -44 948 -35 970 -9C844 62 770 160 719 321H848C890 321 920 319 951 315V387C920 383 892 381 847 381H710C713 415 715 447 716 511ZM393 743C419 743 445 742 466 740V804C447 801 424 800 386 800H122C85 800 64 801 45 804V739C63 742 86 743 114 743H119V147C105 144 98 143 90 141C68 135 67 135 39 134L53 64C70 71 98 79 133 88C224 111 276 126 333 145V36C333 -17 331 -45 327 -70H398C394 -45 393 -18 393 36V165C408 171 424 177 459 192L460 248C427 236 415 231 393 223ZM333 743V594H180V743ZM333 541V390H180V541ZM333 337V202C285 186 224 169 180 160V337ZM650 653C614 725 594 758 550 818L499 790C547 726 567 690 592 624Z" transform="translate(604.00,288.00) scale(0.0220,-0.0220)" fill="#cbd5e1"/>
<path d="M643 673H511C466 673 439 675 412 679V610C440 614 468 616 512 616H643V464H535C492 464 463 466 436 470V401C467 405 494 407 535 407H837C878 407 908 405 936 401V470C909 466 879 464 836 464H703V616H850C890 616 922 614 950 610V679C922 675 895 673 850 673H703V747C703 781 705 805 709 830H637C641 804 643 781 643 749ZM221 831C194 751 161 670 131 608C92 530 82 518 57 514L73 451C105 462 146 467 262 476C233 433 233 433 178 358C131 296 115 280 99 275C85 271 85 271 81 270L101 202C131 211 146 215 170 220C206 226 206 226 221 228C281 239 281 239 333 248C372 254 372 254 395 259L403 321C338 306 297 298 180 278C227 333 243 352 268 385C312 444 367 524 402 580L344 612C327 579 325 577 304 542C303 540 300 535 296 529C213 523 213 523 142 518C160 547 160 548 193 611C224 668 224 668 254 736C260 749 260 749 286 805ZM522 -17H837V-69H905C902 -49 900 -9 900 29V208C900 254 901 281 904 301C881 298 861 297 824 297H531C501 297 480 298 455 301C458 275 459 251 459 210V27C459 -18 458 -44 454 -69H522ZM522 241H837V39H522ZM391 133C328 110 244 88 162 73C121 66 78 60 61 60C59 60 57 60 54 60L69 -12C79 -8 82 -8 115 -1C218 20 299 40 389 68Z" transform="translate(632.00,288.00) scale(0.0220,-0.0220)" fill="#cbd5e1"/>
  <path d="M913 819Q913 1044 854 1188Q790 1333 627 1335Q463 1333 401 1188Q338 1044 340 819ZM143 731Q143 881 168 1014Q188 1147 244 1253Q299 1360 393 1421Q487 1481 627 1483Q768 1481 862 1421Q956 1360 1010 1253Q1065 1147 1089 1014Q1110 881 1110 731Q1110 600 1098 469Q1081 338 1032 227Q985 119 887 51Q788 -18 627 -20Q465 -18 369 51Q272 119 223 227Q174 338 160 469Q143 600 143 731ZM340 672Q338 426 397 279Q455 129 627 127Q799 129 858 279Q915 426 913 672Z" transform="translate(1122.03,288.00) scale(0.0063,-0.0063)" fill="#5eead4"/>
<path d="M1135 822V654H92V822ZM1135 393V222H92V393Z" transform="translate(1137.60,288.00) scale(0.0063,-0.0063)" fill="#5eead4"/>
<path d="M47 1065H1204V905H1057V248Q1055 137 1132 139Q1186 139 1218 149V-10Q1173 -20 1069 -20Q1005 -20 967 2Q928 20 907 55Q887 92 881 139Q872 184 872 240V905H379V0H195V905H47Z" transform="translate(1152.80,288.00) scale(0.0063,-0.0063)" fill="#5eead4"/>
<path d="M466 1469H618L152 0H0Z" transform="translate(1167.55,288.00) scale(0.0063,-0.0063)" fill="#5eead4"/>
<path d="M253 365Q271 211 396 152Q460 122 544 122Q704 122 781.0 224.0Q858 326 858 450Q858 600 766.5 682.0Q675 764 547 764Q454 764 387.5 728.0Q321 692 274 628L118 637L227 1408H971V1234H362L301 836Q351 874 396 893Q476 926 581 926Q778 926 915.0 799.0Q1052 672 1052 477Q1052 274 926.5 119.0Q801 -36 526 -36Q351 -36 216.5 62.5Q82 161 66 365Z" transform="translate(1178.77,288.00) scale(0.0063,-0.0063)" fill="#5eead4"/>

  <!-- 数据元 -->
  <path d="M630 1488V1280H398V-185H630V-394H128V1488Z" transform="translate(380.00,332.00) scale(0.0068,-0.0068)" fill="#64748b"/>
<path d="M564 -36Q287 -36 175.5 158.0Q64 352 64 711Q64 1070 175.5 1265.0Q287 1460 564 1460Q841 1460 953 1265Q1064 1070 1064 711Q1064 352 952.5 158.0Q841 -36 564 -36ZM731 329Q770 461 770 711Q770 973 730.5 1099.0Q691 1225 564 1225Q437 1225 396.0 1099.0Q355 973 355 711Q355 461 396.0 328.5Q437 196 564 196Q691 196 731 329Z" transform="translate(394.55,332.00) scale(0.0068,-0.0068)" fill="#64748b"/>
<path d="M546 720Q494 720 456 707Q389 683 355 618L99 630L201 1431H1000V1189H407L355 872Q421 915 458 929Q520 952 609 952Q789 952 923.0 831.0Q1057 710 1057 479Q1057 278 928.0 120.0Q799 -38 542 -38Q335 -38 202.0 73.0Q69 184 54 388H338Q355 295 403.0 244.5Q451 194 543 194Q649 194 704.5 268.5Q760 343 760 456Q760 567 708.0 643.5Q656 720 546 720Z" transform="translate(405.34,332.00) scale(0.0068,-0.0068)" fill="#64748b"/>
<path d="M-112 0 459 1519H696L123 0Z" transform="translate(423.01,332.00) scale(0.0068,-0.0068)" fill="#64748b"/>
<path d="M782 530H469V0H163V1474H805Q1027 1474 1159.0 1360.0Q1291 1246 1291 1007Q1291 746 1159.0 638.0Q1027 530 782 530ZM926 837Q986 890 986 1005Q986 1120 925.5 1169.0Q865 1218 756 1218H469V784H756Q865 784 926 837Z" transform="translate(436.79,332.00) scale(0.0068,-0.0068)" fill="#64748b"/>
<path d="M132 1474H438V0H132Z" transform="translate(449.13,332.00) scale(0.0068,-0.0068)" fill="#64748b"/>
<path d="M156 1474H464V265H1194V0H156Z" transform="translate(456.02,332.00) scale(0.0068,-0.0068)" fill="#64748b"/>
<path d="M156 1474H464V265H1194V0H156Z" transform="translate(467.57,332.00) scale(0.0068,-0.0068)" fill="#64748b"/>
<path d="M1019 303H476L374 0H52L578 1474H926L1448 0H1114ZM933 557 749 1137 559 557Z" transform="translate(479.12,332.00) scale(0.0068,-0.0068)" fill="#64748b"/>
<path d="M782 578H464V0H163V1474H886Q1041 1471 1124.5 1436.0Q1208 1401 1266 1333Q1314 1277 1342.0 1209.0Q1370 1141 1370 1054Q1370 949 1317.0 847.5Q1264 746 1142 704Q1244 663 1286.5 587.5Q1329 512 1329 357V258Q1329 157 1337 121Q1349 64 1393 37V0H1054Q1040 49 1034 79Q1022 141 1021 206L1019 343Q1017 484 967.5 531.0Q918 578 782 578ZM969 846Q1061 888 1061 1012Q1061 1146 972 1192Q922 1218 822 1218H464V822H813Q917 822 969 846Z" transform="translate(492.23,332.00) scale(0.0068,-0.0068)" fill="#64748b"/>
<path d="M691 213Q800 213 868 237Q997 283 997 408Q997 481 933 521Q869 560 732 590L576 625Q346 677 258 738Q109 840 109 1057Q109 1255 253.0 1386.0Q397 1517 676 1517Q909 1517 1073.5 1393.5Q1238 1270 1246 1035H950Q942 1168 834 1224Q762 1261 655 1261Q536 1261 465.0 1213.0Q394 1165 394 1079Q394 1000 464 961Q509 935 656 900L910 839Q1077 799 1162 732Q1294 628 1294 431Q1294 229 1139.5 95.5Q985 -38 703 -38Q415 -38 250.0 93.5Q85 225 85 455H379Q393 354 434 304Q509 213 691 213Z" transform="translate(505.34,332.00) scale(0.0068,-0.0068)" fill="#64748b"/>
<path d="M279 -185V1284H47V1488H549V-394H47V-185Z" transform="translate(524.57,332.00) scale(0.0068,-0.0068)" fill="#64748b"/>
<path d="M630 1488V1280H398V-185H630V-394H128V1488Z" transform="translate(559.79,332.00) scale(0.0068,-0.0068)" fill="#64748b"/>
<path d="M775 0H483V1000H142V1194Q277 1200 331 1212Q417 1231 471 1288Q508 1327 527 1392Q538 1431 538 1450H775Z" transform="translate(574.34,332.00) scale(0.0068,-0.0068)" fill="#64748b"/>
<path d="M179 91Q54 219 54 402Q54 524 109.5 623.0Q165 722 272 772Q167 842 135.5 923.5Q104 1005 104 1076Q104 1234 223.0 1345.5Q342 1457 559 1457Q776 1457 895.0 1345.5Q1014 1234 1014 1076Q1014 1005 982.5 923.5Q951 842 846 782Q953 722 1007.0 623.0Q1061 524 1061 402Q1061 219 925.5 90.5Q790 -38 547 -38Q304 -38 179 91ZM350 421Q350 314 405.5 255.0Q461 196 559 196Q657 196 712.5 255.0Q768 314 768 421Q768 532 711.5 589.5Q655 647 559 647Q463 647 406.5 589.5Q350 532 350 421ZM425 915Q473 865 559 865Q646 865 693.5 915.0Q741 965 741 1044Q741 1130 693.5 1178.5Q646 1227 559 1227Q473 1227 424.5 1178.5Q376 1130 376 1044Q376 965 425 915Z" transform="translate(585.13,332.00) scale(0.0068,-0.0068)" fill="#64748b"/>
<path d="M532 -42Q369 -42 239.0 54.5Q109 151 90 336H374Q384 272 428.0 232.0Q472 192 545 192Q686 192 743 348Q774 434 782 599Q743 550 699 524Q619 476 502 476Q329 476 195.0 595.5Q61 715 61 940Q61 1173 195.5 1317.5Q330 1462 545 1462Q876 1462 999 1169Q1069 1003 1069 732Q1069 469 1002 293Q874 -42 532 -42ZM432 1183Q350 1119 350 966Q350 837 402.5 772.5Q455 708 564 708Q623 708 675 742Q772 804 772 957Q772 1080 714.5 1152.0Q657 1224 557 1224Q484 1224 432 1183Z" transform="translate(595.92,332.00) scale(0.0068,-0.0068)" fill="#64748b"/>
<path d="M746 412V0H483V412H73V673H483V1083H746V673H1156V412Z" transform="translate(606.70,332.00) scale(0.0068,-0.0068)" fill="#64748b"/>
<path d="M-112 0 459 1519H696L123 0Z" transform="translate(624.77,332.00) scale(0.0068,-0.0068)" fill="#64748b"/>
<path d="M1227 1474V1213H786V0H476V1213H33V1474Z" transform="translate(638.55,332.00) scale(0.0068,-0.0068)" fill="#64748b"/>
<path d="M808 -41Q492 -41 325 131Q101 342 101 739Q101 1144 325 1347Q492 1519 808 1519Q1124 1519 1291 1347Q1514 1144 1514 739Q1514 342 1291 131Q1124 -41 808 -41ZM1099 355Q1206 490 1206 739Q1206 987 1098.5 1122.5Q991 1258 808 1258Q625 1258 516.0 1123.0Q407 988 407 739Q407 490 516.0 355.0Q625 220 808 220Q991 220 1099 355Z" transform="translate(650.10,332.00) scale(0.0068,-0.0068)" fill="#64748b"/>
<path d="M782 530H469V0H163V1474H805Q1027 1474 1159.0 1360.0Q1291 1246 1291 1007Q1291 746 1159.0 638.0Q1027 530 782 530ZM926 837Q986 890 986 1005Q986 1120 925.5 1169.0Q865 1218 756 1218H469V784H756Q865 784 926 837Z" transform="translate(663.99,332.00) scale(0.0068,-0.0068)" fill="#64748b"/>
<path d="M132 1474H438V0H132Z" transform="translate(676.33,332.00) scale(0.0068,-0.0068)" fill="#64748b"/>
<path d="M1196 110Q1031 -41 774 -41Q456 -41 274 163Q92 368 92 725Q92 1111 299 1320Q479 1502 757 1502Q1129 1502 1301 1258Q1396 1121 1403 983H1095Q1065 1089 1018 1143Q934 1239 769 1239Q601 1239 504.0 1103.5Q407 968 407 720Q407 472 509.5 348.5Q612 225 770 225Q932 225 1017 331Q1064 388 1095 502H1400Q1360 261 1196 110Z" transform="translate(683.22,332.00) scale(0.0068,-0.0068)" fill="#64748b"/>
<path d="M691 213Q800 213 868 237Q997 283 997 408Q997 481 933 521Q869 560 732 590L576 625Q346 677 258 738Q109 840 109 1057Q109 1255 253.0 1386.0Q397 1517 676 1517Q909 1517 1073.5 1393.5Q1238 1270 1246 1035H950Q942 1168 834 1224Q762 1261 655 1261Q536 1261 465.0 1213.0Q394 1165 394 1079Q394 1000 464 961Q509 935 656 900L910 839Q1077 799 1162 732Q1294 628 1294 431Q1294 229 1139.5 95.5Q985 -38 703 -38Q415 -38 250.0 93.5Q85 225 85 455H379Q393 354 434 304Q509 213 691 213Z" transform="translate(696.33,332.00) scale(0.0068,-0.0068)" fill="#64748b"/>
<path d="M279 -185V1284H47V1488H549V-394H47V-185Z" transform="translate(715.55,332.00) scale(0.0068,-0.0068)" fill="#64748b"/>
<path d="M630 1488V1280H398V-185H630V-394H128V1488Z" transform="translate(750.78,332.00) scale(0.0068,-0.0068)" fill="#64748b"/>
<path d="M712 1155Q661 1216 566 1216Q436 1216 389 1119Q362 1063 357 941H80Q87 1126 147 1240Q261 1457 552 1457Q782 1457 918.0 1329.5Q1054 1202 1054 992Q1054 831 958 706Q895 623 751 521L637 440Q530 364 490.5 330.0Q451 296 424 251H1057V0H64Q68 156 131 285Q192 430 419 592Q616 733 674 794Q763 889 763 1002Q763 1094 712 1155Z" transform="translate(765.33,332.00) scale(0.0068,-0.0068)" fill="#64748b"/>
<path d="M1071 535V312H907V0H628V312H54V561L587 1441H907V535ZM265 535H628V1161Z" transform="translate(776.11,332.00) scale(0.0068,-0.0068)" fill="#64748b"/>
<path d="M564 -36Q287 -36 175.5 158.0Q64 352 64 711Q64 1070 175.5 1265.0Q287 1460 564 1460Q841 1460 953 1265Q1064 1070 1064 711Q1064 352 952.5 158.0Q841 -36 564 -36ZM731 329Q770 461 770 711Q770 973 730.5 1099.0Q691 1225 564 1225Q437 1225 396.0 1099.0Q355 973 355 711Q355 461 396.0 328.5Q437 196 564 196Q691 196 731 329Z" transform="translate(786.90,332.00) scale(0.0068,-0.0068)" fill="#64748b"/>
<path d="M564 -36Q287 -36 175.5 158.0Q64 352 64 711Q64 1070 175.5 1265.0Q287 1460 564 1460Q841 1460 953 1265Q1064 1070 1064 711Q1064 352 952.5 158.0Q841 -36 564 -36ZM731 329Q770 461 770 711Q770 973 730.5 1099.0Q691 1225 564 1225Q437 1225 396.0 1099.0Q355 973 355 711Q355 461 396.0 328.5Q437 196 564 196Q691 196 731 329Z" transform="translate(797.69,332.00) scale(0.0068,-0.0068)" fill="#64748b"/>
<path d="M746 412V0H483V412H73V673H483V1083H746V673H1156V412Z" transform="translate(808.47,332.00) scale(0.0068,-0.0068)" fill="#64748b"/>
<path d="M-112 0 459 1519H696L123 0Z" transform="translate(826.54,332.00) scale(0.0068,-0.0068)" fill="#64748b"/>
<path d="M791 0H156V1474H791Q928 1472 1019 1442Q1174 1391 1270 1255Q1347 1145 1375.0 1017.0Q1403 889 1403 773Q1403 479 1285 275Q1125 0 791 0ZM1020 1098Q949 1218 739 1218H455V256H739Q957 256 1043 471Q1090 589 1090 752Q1090 977 1020 1098Z" transform="translate(840.32,332.00) scale(0.0068,-0.0068)" fill="#64748b"/>
<path d="M808 -41Q492 -41 325 131Q101 342 101 739Q101 1144 325 1347Q492 1519 808 1519Q1124 1519 1291 1347Q1514 1144 1514 739Q1514 342 1291 131Q1124 -41 808 -41ZM1099 355Q1206 490 1206 739Q1206 987 1098.5 1122.5Q991 1258 808 1258Q625 1258 516.0 1123.0Q407 988 407 739Q407 490 516.0 355.0Q625 220 808 220Q991 220 1099 355Z" transform="translate(853.43,332.00) scale(0.0068,-0.0068)" fill="#64748b"/>
<path d="M1196 110Q1031 -41 774 -41Q456 -41 274 163Q92 368 92 725Q92 1111 299 1320Q479 1502 757 1502Q1129 1502 1301 1258Q1396 1121 1403 983H1095Q1065 1089 1018 1143Q934 1239 769 1239Q601 1239 504.0 1103.5Q407 968 407 720Q407 472 509.5 348.5Q612 225 770 225Q932 225 1017 331Q1064 388 1095 502H1400Q1360 261 1196 110Z" transform="translate(867.32,332.00) scale(0.0068,-0.0068)" fill="#64748b"/>
<path d="M691 213Q800 213 868 237Q997 283 997 408Q997 481 933 521Q869 560 732 590L576 625Q346 677 258 738Q109 840 109 1057Q109 1255 253.0 1386.0Q397 1517 676 1517Q909 1517 1073.5 1393.5Q1238 1270 1246 1035H950Q942 1168 834 1224Q762 1261 655 1261Q536 1261 465.0 1213.0Q394 1165 394 1079Q394 1000 464 961Q509 935 656 900L910 839Q1077 799 1162 732Q1294 628 1294 431Q1294 229 1139.5 95.5Q985 -38 703 -38Q415 -38 250.0 93.5Q85 225 85 455H379Q393 354 434 304Q509 213 691 213Z" transform="translate(880.43,332.00) scale(0.0068,-0.0068)" fill="#64748b"/>
<path d="M279 -185V1284H47V1488H549V-394H47V-185Z" transform="translate(899.65,332.00) scale(0.0068,-0.0068)" fill="#64748b"/>
<path d="M630 1488V1280H398V-185H630V-394H128V1488Z" transform="translate(934.88,332.00) scale(0.0068,-0.0068)" fill="#64748b"/>
<path d="M791 0H156V1474H791Q928 1472 1019 1442Q1174 1391 1270 1255Q1347 1145 1375.0 1017.0Q1403 889 1403 773Q1403 479 1285 275Q1125 0 791 0ZM1020 1098Q949 1218 739 1218H455V256H739Q957 256 1043 471Q1090 589 1090 752Q1090 977 1020 1098Z" transform="translate(949.43,332.00) scale(0.0068,-0.0068)" fill="#64748b"/>
<path d="M1019 303H476L374 0H52L578 1474H926L1448 0H1114ZM933 557 749 1137 559 557Z" transform="translate(962.54,332.00) scale(0.0068,-0.0068)" fill="#64748b"/>
<path d="M132 1474H438V0H132Z" transform="translate(975.65,332.00) scale(0.0068,-0.0068)" fill="#64748b"/>
<path d="M156 1474H464V265H1194V0H156Z" transform="translate(982.54,332.00) scale(0.0068,-0.0068)" fill="#64748b"/>
<path d="M1346 1474 853 554V0H545V554L35 1474H398L704 832L997 1474Z" transform="translate(994.09,332.00) scale(0.0068,-0.0068)" fill="#64748b"/>
<path d="M-112 0 459 1519H696L123 0Z" transform="translate(1013.32,332.00) scale(0.0068,-0.0068)" fill="#64748b"/>
<path d="M132 1474H438V0H132Z" transform="translate(1027.10,332.00) scale(0.0068,-0.0068)" fill="#64748b"/>
<path d="M1227 1474V1213H786V0H476V1213H33V1474Z" transform="translate(1033.99,332.00) scale(0.0068,-0.0068)" fill="#64748b"/>
<path d="M1182 644H466V265H1282V0H165V1474H1246V1213H466V900H1182Z" transform="translate(1045.54,332.00) scale(0.0068,-0.0068)" fill="#64748b"/>
<path d="M782 578H464V0H163V1474H886Q1041 1471 1124.5 1436.0Q1208 1401 1266 1333Q1314 1277 1342.0 1209.0Q1370 1141 1370 1054Q1370 949 1317.0 847.5Q1264 746 1142 704Q1244 663 1286.5 587.5Q1329 512 1329 357V258Q1329 157 1337 121Q1349 64 1393 37V0H1054Q1040 49 1034 79Q1022 141 1021 206L1019 343Q1017 484 967.5 531.0Q918 578 782 578ZM969 846Q1061 888 1061 1012Q1061 1146 972 1192Q922 1218 822 1218H464V822H813Q917 822 969 846Z" transform="translate(1057.88,332.00) scale(0.0068,-0.0068)" fill="#64748b"/>
<path d="M1019 303H476L374 0H52L578 1474H926L1448 0H1114ZM933 557 749 1137 559 557Z" transform="translate(1070.99,332.00) scale(0.0068,-0.0068)" fill="#64748b"/>
<path d="M1227 1474V1213H786V0H476V1213H33V1474Z" transform="translate(1084.10,332.00) scale(0.0068,-0.0068)" fill="#64748b"/>
<path d="M132 1474H438V0H132Z" transform="translate(1095.65,332.00) scale(0.0068,-0.0068)" fill="#64748b"/>
<path d="M808 -41Q492 -41 325 131Q101 342 101 739Q101 1144 325 1347Q492 1519 808 1519Q1124 1519 1291 1347Q1514 1144 1514 739Q1514 342 1291 131Q1124 -41 808 -41ZM1099 355Q1206 490 1206 739Q1206 987 1098.5 1122.5Q991 1258 808 1258Q625 1258 516.0 1123.0Q407 988 407 739Q407 490 516.0 355.0Q625 220 808 220Q991 220 1099 355Z" transform="translate(1102.54,332.00) scale(0.0068,-0.0068)" fill="#64748b"/>
<path d="M1348 0H1040L438 1047V0H151V1474H474L1061 445V1474H1348Z" transform="translate(1116.43,332.00) scale(0.0068,-0.0068)" fill="#64748b"/>
<path d="M279 -185V1284H47V1488H549V-394H47V-185Z" transform="translate(1136.43,332.00) scale(0.0068,-0.0068)" fill="#64748b"/>

  <!-- 底部贯穿基准线 -->
  <line x1="40" y1="360" x2="1240" y2="360" stroke="#22d3ee" stroke-opacity="0.25" stroke-width="1"/>
  <rect x="36" y="356" width="8" height="8" fill="#22d3ee" fill-opacity="0.55"/>
  <rect x="1236" y="356" width="8" height="8" fill="#22d3ee" fill-opacity="0.55"/>

  <!-- 底部 footer -->
  <path d="M466 1469H618L152 0H0Z" transform="translate(60.00,382.00) scale(0.0059,-0.0059)" fill="#22d3ee"/>
<path d="M466 1469H618L152 0H0Z" transform="translate(65.33,382.00) scale(0.0059,-0.0059)" fill="#22d3ee"/>
<path d="M211 84C207 69 201 62 185 54L216 -14C236 -1 255 12 273 23C289 32 380 90 419 116L415 186C353 144 341 137 276 100V425C276 475 277 499 281 531C257 528 233 526 204 526H131C93 526 78 527 53 531V461C78 465 93 466 127 466H211ZM602 813C606 785 607 766 607 721C607 516 597 414 565 304C523 160 448 50 347 -18C367 -33 379 -47 395 -76C471 -12 517 44 561 130C611 228 630 299 643 447C666 298 689 227 746 133C793 54 849 -14 916 -73C930 -45 934 -39 965 -6C853 69 770 184 722 331C683 450 673 527 673 718C673 768 674 786 678 813ZM159 776C227 730 267 694 317 635L364 685C320 734 277 770 207 820Z" transform="translate(76.00,382.00) scale(0.0120,-0.0120)" fill="#22d3ee"/>
<path d="M272 635C271 519 270 498 266 448H171C118 448 93 449 63 454V384C94 389 120 390 169 390H260C240 216 182 116 45 19C68 2 79 -9 95 -33C203 54 255 127 293 248C296 244 297 243 301 238C361 173 400 119 449 37L503 79C454 151 406 208 309 311C314 336 319 367 321 390H411C450 390 481 388 506 384V454C482 450 452 448 411 448H326C329 501 331 564 333 635H397C431 635 464 633 495 630V699C472 695 446 693 397 693H216C225 717 234 743 242 772C251 802 253 810 259 826L191 837C191 822 188 808 182 782C156 677 119 607 49 532C74 517 83 509 98 488C145 549 161 574 191 635ZM602 34H844V-37H914C910 -8 908 37 908 84V632C908 679 909 707 913 737C885 733 865 732 823 732H623C580 732 561 733 533 737C537 703 539 670 539 632V77C539 33 537 -9 533 -37H602ZM602 674H844V92H602Z" transform="translate(90.00,382.00) scale(0.0120,-0.0120)" fill="#22d3ee"/>
<path d="M529 660H770C817 660 849 658 885 654V730C852 726 821 724 769 724H237C184 724 153 726 121 730V654C156 658 189 660 236 660H457V89H175C122 89 91 91 57 96V18C92 23 124 25 174 25H831C881 25 916 23 948 18V96C914 91 883 89 831 89H529Z" transform="translate(104.00,382.00) scale(0.0120,-0.0120)" fill="#22d3ee"/>
<path d="M204 574H128C91 574 74 575 50 579V514C75 518 92 519 126 519H194C194 517 194 517 192 512C183 474 155 405 129 354C96 290 62 242 21 200C36 184 47 168 58 145C134 235 180 324 209 435C207 396 204 302 204 279V37C204 -14 202 -49 198 -77H271C267 -50 265 -18 265 38V404C296 364 323 325 350 280L394 322C359 373 325 413 265 475V519H320C348 519 367 518 387 515V578C370 575 351 574 321 574H265V735C292 744 334 759 390 782L350 835C303 799 197 767 56 747C69 729 76 714 84 692C155 706 173 711 204 719ZM618 334V215H506C456 215 428 216 403 220V154C433 158 458 159 506 159H618V22H447C394 22 364 23 338 27V-41C372 -37 402 -35 447 -35H836C881 -35 911 -37 945 -41V28C914 24 883 22 836 22H680V159H801C848 159 878 158 905 154V220C879 216 851 215 801 215H680V334H820C865 334 894 332 927 328V396C896 392 865 390 820 390H499C452 390 426 391 400 395V329C429 333 453 334 497 334ZM433 556C433 519 432 498 429 474C457 476 483 477 520 477H798C838 477 862 476 890 474C887 493 886 518 886 558V703C886 738 887 762 890 784C863 781 842 780 801 780H519C479 780 457 781 429 784C432 761 433 735 433 703ZM495 724H824V532H495Z" transform="translate(118.00,382.00) scale(0.0120,-0.0120)" fill="#22d3ee"/>
<path d="M407 701Q407 648 369.5 610.5Q332 573 279 573Q226 573 188.5 610.5Q151 648 151 701Q151 754 188.0 791.5Q225 829 279 829Q333 829 370.0 791.5Q407 754 407 701Z" transform="translate(137.34,382.00) scale(0.0059,-0.0059)" fill="#22d3ee"/>
<path d="M333 671C300 729 277 763 231 819L171 800C218 747 239 718 265 670H195C140 670 118 671 81 675C84 649 85 629 85 592V518C85 493 83 471 80 448H146V616H852V448H918C915 471 913 495 913 518V592C913 629 914 649 917 675C882 672 860 671 802 671H724C753 703 779 739 820 805L757 832C729 769 699 722 654 671H544C522 732 506 765 468 832L406 815C440 763 461 721 479 671ZM471 219V18C471 -2 464 -5 420 -5C382 -5 341 -2 287 5C297 -17 301 -30 308 -59C345 -62 389 -64 420 -64C517 -64 535 -53 535 9V219H831C875 219 909 217 937 213V282C909 278 877 276 832 276H535V307C634 358 696 399 763 455C785 474 785 474 798 484L760 524C743 521 723 520 686 520H325C288 520 256 522 228 525V460C255 463 289 465 323 465H689C636 421 579 385 510 352H468C470 331 471 313 471 293V276H170C127 276 95 278 66 282V213C96 217 127 219 171 219Z" transform="translate(148.00,382.00) scale(0.0120,-0.0120)" fill="#22d3ee"/>
<path d="M932 609C899 604 871 602 819 602H525V732C525 765 527 791 532 823H451C456 789 458 765 458 731V602H179C135 602 107 604 70 609V537C115 542 142 543 180 543H449C405 466 379 429 319 362C225 254 149 189 36 119C57 102 69 89 87 61C167 117 220 162 282 224C372 315 416 375 465 476C460 406 458 369 458 364V41C458 -6 456 -36 451 -74H532C527 -39 525 -8 525 41V364C525 403 524 432 521 478C551 423 563 404 592 366C596 360 598 357 599 356C651 286 680 253 747 194C819 129 843 110 912 64C927 91 934 99 962 127C853 189 787 240 704 325C630 401 587 455 533 543H820C859 543 891 541 932 537ZM634 751C707 708 730 691 787 634L831 683C766 740 749 753 676 796Z" transform="translate(162.00,382.00) scale(0.0120,-0.0120)" fill="#22d3ee"/>
<path d="M317 732C350 732 372 731 398 728V794C373 789 353 788 314 788H151C110 788 87 790 61 794V726C88 731 109 732 147 732H191C184 669 175 629 157 575C121 465 78 387 19 321C33 307 44 289 55 261C91 306 111 337 130 383C128 338 127 307 127 271V49C127 4 125 -21 121 -48H187V58H311V8H374C371 34 370 54 370 92V401C370 444 371 459 373 481C355 479 344 478 311 478H186C223 571 243 642 255 732ZM187 425H311V112H187ZM833 732H857C900 732 926 731 954 726V795C926 791 898 789 854 789H538C491 789 460 791 437 795V726C466 730 492 732 534 732H543V480C543 465 543 463 543 455H513C467 455 441 456 414 460V390C444 395 469 396 513 396H541C533 193 485 64 380 -35C404 -47 420 -60 438 -80C552 52 596 177 605 396H770V37C770 -3 768 -32 763 -70H840C835 -33 833 -1 833 37V396H865C910 396 938 394 965 390V461C938 456 912 455 865 455H833ZM770 732V455H607C607 469 607 472 607 489V732Z" transform="translate(176.00,382.00) scale(0.0120,-0.0120)" fill="#22d3ee"/>
<path d="M546 725C514 785 509 793 472 847L420 822C445 788 463 759 479 725H182C145 725 117 726 81 730C84 709 85 691 85 661V611C85 581 84 564 81 541H147V668H855V540H921C918 561 917 580 917 610V661C917 691 918 709 921 730C885 726 857 725 820 725ZM637 275V30C637 -32 664 -46 782 -46C941 -46 947 -40 963 160C935 168 923 172 898 186C897 127 892 72 885 46C878 18 865 13 791 13C710 13 700 17 700 47V250C700 276 702 317 704 338C668 334 643 333 593 333H462C466 363 468 383 470 407C472 445 473 450 478 470L401 471C404 452 405 436 405 418C405 394 402 357 398 333H226C175 333 146 335 120 339V269C148 273 176 275 228 275H387C364 189 321 129 247 78C189 38 144 16 55 -12C79 -34 87 -44 99 -69C177 -40 213 -22 266 13C311 44 345 74 373 109C412 157 433 202 451 275ZM370 620C328 572 305 550 264 524C217 494 178 477 89 448C102 436 118 416 127 399C210 428 248 446 308 487C359 522 383 544 423 592ZM586 574C667 533 775 464 859 400L901 451C810 513 727 562 624 613Z" transform="translate(190.00,382.00) scale(0.0120,-0.0120)" fill="#22d3ee"/>
<path d="M407 701Q407 648 369.5 610.5Q332 573 279 573Q226 573 188.5 610.5Q151 648 151 701Q151 754 188.0 791.5Q225 829 279 829Q333 829 370.0 791.5Q407 754 407 701Z" transform="translate(209.34,382.00) scale(0.0059,-0.0059)" fill="#22d3ee"/>
<path d="M469 703C491 745 505 776 526 830L454 843C441 791 426 750 400 703H284C230 703 200 704 166 708C170 673 171 643 171 584V53C171 -4 169 -35 165 -64H234V-5H762V-64H832C827 -36 826 -9 826 52V584C826 646 827 675 831 708C796 704 766 703 710 703ZM234 644H763V491H234ZM234 433H763V275H234ZM234 217H763V54H234Z" transform="translate(220.01,382.00) scale(0.0120,-0.0120)" fill="#22d3ee"/>
<path d="M843 480C885 480 917 478 946 474V543C917 539 888 537 846 537H625C619 604 617 659 617 719C617 774 618 792 623 815H547C551 791 552 778 553 741C555 625 556 612 562 537H326V710C363 721 403 735 450 753C472 761 472 761 476 762C488 766 488 766 494 768L456 824C399 781 221 730 68 712C81 693 89 677 96 657C163 668 190 674 263 693V537H158C113 537 81 539 55 543V474C84 478 116 480 158 480H263V303C134 274 87 265 53 265L70 196C88 203 99 205 122 210C154 216 165 219 263 243V34C263 16 258 12 236 12C202 12 167 15 111 23C121 -2 125 -20 127 -46C168 -49 205 -51 238 -51C305 -51 326 -34 326 18V258C380 272 412 282 508 313L505 372C427 345 400 337 326 318V480H567C580 370 606 270 643 183C565 108 486 59 369 14C393 -7 402 -19 415 -41C525 10 595 55 671 126C734 12 802 -56 854 -56C904 -56 928 -13 954 129C933 141 921 150 900 172C884 63 869 15 850 15C822 15 762 85 717 172C763 224 804 283 839 348C850 368 859 382 871 399L809 433C791 372 748 301 688 232C659 307 642 380 631 480ZM687 761C758 693 787 659 836 592L884 633C835 698 794 741 732 794Z" transform="translate(234.01,382.00) scale(0.0120,-0.0120)" fill="#22d3ee"/>
<path d="M522 736C585 742 666 752 687 756C788 774 840 783 842 784L798 841C761 827 735 820 671 809C530 786 332 770 177 770C164 770 147 770 124 770C138 749 142 739 149 714C262 717 262 717 461 730V653H163C122 653 88 655 62 659V594C92 598 119 600 163 600H461V532H245C211 532 189 533 165 536C168 509 169 494 169 467V288C169 260 168 248 165 220C191 223 211 224 245 224H461V148H228C188 148 155 150 128 154V87C156 91 186 93 228 93H461V9H159C118 9 85 11 58 15V-53C87 -49 116 -47 159 -47H844C887 -47 916 -49 946 -53V15C916 11 887 9 844 9H522V93H774C816 93 846 91 875 87V154C847 150 817 148 774 148H522V224H756C790 224 811 223 837 220C834 245 833 260 833 288V467C833 494 834 509 837 536C813 533 791 532 757 532H522V600H840C883 600 914 598 941 594V659C912 655 882 653 840 653H522ZM461 403H231V483H461ZM522 403V483H771V403ZM461 273H231V354H461ZM522 273V354H771V273Z" transform="translate(248.01,382.00) scale(0.0120,-0.0120)" fill="#22d3ee"/>
<path d="M538 678C555 722 555 722 569 764C583 806 583 806 588 818L519 834C515 804 505 763 489 717C459 629 419 559 362 496C385 482 393 474 410 454C456 509 481 551 515 622H871C868 322 849 98 821 28C812 7 801 2 761 2C723 2 677 6 624 15C633 -12 637 -26 639 -52C692 -56 731 -58 754 -58C803 -58 832 -52 849 -40C872 -24 887 13 899 81C918 185 933 413 934 604C934 638 935 661 938 682C912 679 889 678 852 678ZM806 143C772 259 748 320 704 407L655 384C685 321 695 298 711 252C650 237 632 233 600 228C529 216 529 216 506 211C537 274 566 354 592 442C606 493 611 507 619 528L552 543C551 523 550 519 542 491C514 388 503 351 488 312C454 224 448 214 414 198L434 141C443 142 443 142 452 144C468 147 468 147 482 149C567 163 665 184 728 200C732 187 735 176 750 117ZM208 635H134C99 635 80 636 58 640V574C80 578 99 579 133 579H197C158 430 105 321 30 233C49 217 60 203 74 180C138 265 175 347 213 486C209 412 208 363 208 313V13C208 -29 206 -55 202 -80H275C271 -54 269 -30 269 14V456C331 370 331 370 359 317L405 358C379 397 320 471 269 530V579H325C354 579 373 578 393 575V638C371 636 352 635 324 635H269V748C269 787 270 806 275 832H202C206 806 208 785 208 749Z" transform="translate(262.01,382.00) scale(0.0120,-0.0120)" fill="#22d3ee"/>
  <path d="M175 1469H836Q1032 1469 1152.0 1358.5Q1272 1248 1272 1048Q1272 876 1165.0 748.5Q1058 621 836 621H374V0H175ZM951 1267Q885 1298 770 1298H374V789H770Q904 789 987.5 846.0Q1071 903 1071 1047Q1071 1209 951 1267Z" transform="translate(1060.62,382.00) scale(0.0059,-0.0059)" fill="#22d3ee"/>
<path d="M175 1469H1246V1289H369V843H1180V673H369V175H1261V0H175ZM718 1469Z" transform="translate(1070.62,382.00) scale(0.0059,-0.0059)" fill="#22d3ee"/>
<path d="M910 602 687 1251 450 602ZM583 1469H808L1341 0H1123L974 440H393L234 0H30Z" transform="translate(1080.62,382.00) scale(0.0059,-0.0059)" fill="#22d3ee"/>
<path d="M1379 1028H1185Q1152 1170 1053.5 1253.0Q955 1336 777 1336Q560 1336 426.5 1183.5Q293 1031 293 716Q293 458 413.5 297.5Q534 137 773 137Q993 137 1108 306Q1169 395 1199 540H1393Q1367 308 1221 151Q1046 -38 749 -38Q493 -38 319 117Q90 322 90 750Q90 1075 262 1283Q448 1509 775 1509Q1054 1509 1208.0 1362.0Q1362 1215 1379 1028ZM735 1509Z" transform="translate(1090.63,382.00) scale(0.0059,-0.0059)" fill="#22d3ee"/>
<path d="M175 1469H1246V1289H369V843H1180V673H369V175H1261V0H175ZM718 1469Z" transform="translate(1101.29,382.00) scale(0.0059,-0.0059)" fill="#22d3ee"/>
<path d="M85 663H587V478H85Z" transform="translate(1111.30,382.00) scale(0.0059,-0.0059)" fill="#22d3ee"/>
<path d="M156 1469H355V175H1099V0H156Z" transform="translate(1117.29,382.00) scale(0.0059,-0.0059)" fill="#22d3ee"/>
<path d="M910 602 687 1251 450 602ZM583 1469H808L1341 0H1123L974 440H393L234 0H30Z" transform="translate(1125.97,382.00) scale(0.0059,-0.0059)" fill="#22d3ee"/>
<path d="M708 848Q834 848 904 883Q1014 938 1014 1081Q1014 1225 897 1275Q831 1303 701 1303H346V848ZM775 170Q958 170 1036 276Q1085 343 1085 438Q1085 598 942 656Q866 687 741 687H346V170ZM151 1469H782Q1040 1469 1149 1315Q1213 1224 1213 1105Q1213 966 1134 877Q1093 830 1016 791Q1129 748 1185 694Q1284 598 1284 429Q1284 287 1195 172Q1062 0 772 0H151Z" transform="translate(1135.97,382.00) scale(0.0059,-0.0059)" fill="#22d3ee"/>
<path d="M466 1469H618L152 0H0Z" transform="translate(1151.31,382.00) scale(0.0059,-0.0059)" fill="#22d3ee"/>
<path d="M1149 1427Q1368 1312 1417 1024H1220Q1184 1185 1071.0 1258.5Q958 1332 786 1332Q582 1332 442.5 1179.0Q303 1026 303 723Q303 461 418.0 296.5Q533 132 793 132Q992 132 1122.5 247.5Q1253 363 1256 621H796V786H1441V0H1313L1265 189Q1164 78 1086 35Q955 -39 753 -39Q492 -39 304 130Q99 342 99 712Q99 1081 299 1299Q489 1507 791 1507Q998 1507 1149 1427ZM758 1509Z" transform="translate(1161.98,382.00) scale(0.0059,-0.0059)" fill="#22d3ee"/>
<path d="M156 1469H355V175H1099V0H156Z" transform="translate(1173.31,382.00) scale(0.0059,-0.0059)" fill="#22d3ee"/>
<path d="M1366 1259Q1512 1064 1512 760Q1512 431 1345 213Q1149 -43 786 -43Q447 -43 253 181Q80 397 80 727Q80 1025 228 1237Q418 1509 790 1509Q1179 1509 1366 1259ZM1308 757Q1308 1016 1172.5 1174.0Q1037 1332 802 1332Q574 1332 430.0 1175.5Q286 1019 286 714Q286 470 409.5 302.5Q533 135 810 135Q1073 135 1190.5 323.5Q1308 512 1308 757ZM796 1509Z" transform="translate(1181.98,382.00) scale(0.0059,-0.0059)" fill="#22d3ee"/>
<path d="M708 848Q834 848 904 883Q1014 938 1014 1081Q1014 1225 897 1275Q831 1303 701 1303H346V848ZM775 170Q958 170 1036 276Q1085 343 1085 438Q1085 598 942 656Q866 687 741 687H346V170ZM151 1469H782Q1040 1469 1149 1315Q1213 1224 1213 1105Q1213 966 1134 877Q1093 830 1016 791Q1129 748 1185 694Q1284 598 1284 429Q1284 287 1195 172Q1062 0 772 0H151Z" transform="translate(1193.32,382.00) scale(0.0059,-0.0059)" fill="#22d3ee"/>
<path d="M910 602 687 1251 450 602ZM583 1469H808L1341 0H1123L974 440H393L234 0H30Z" transform="translate(1203.32,382.00) scale(0.0059,-0.0059)" fill="#22d3ee"/>
<path d="M156 1469H355V175H1099V0H156Z" transform="translate(1213.33,382.00) scale(0.0059,-0.0059)" fill="#22d3ee"/>
</svg>
